<svg xmlns="http://www.w3.org/2000/svg" xmlns:xlink="http://www.w3.org/1999/xlink" viewBox="0 0 119.27 88.63"><defs><style>.cls-1{fill:url(#linear-gradient);}.cls-2{fill:url(#linear-gradient-2);}.cls-3{fill:url(#linear-gradient-3);}.cls-4{fill:url(#linear-gradient-4);}.cls-5{fill:url(#linear-gradient-5);}.cls-6{fill:url(#linear-gradient-6);}.cls-7{fill:#f3f7f2;}.cls-8{fill:url(#linear-gradient-7);}.cls-9{fill:url(#linear-gradient-8);}.cls-10{fill:url(#linear-gradient-9);}.cls-11{fill:url(#linear-gradient-10);}.cls-12{fill:#becace;}.cls-13{fill:#d5dde0;}.cls-14{fill:url(#linear-gradient-11);}.cls-15{fill:#f3f5f6;}</style><linearGradient id="linear-gradient" x1="13.66" y1="58.39" x2="24.37" y2="58.39" gradientUnits="userSpaceOnUse"><stop offset="0" stop-color="#a177ff"/><stop offset="1" stop-color="#6563c9"/></linearGradient><linearGradient id="linear-gradient-2" x1="20.65" y1="54.74" x2="38.65" y2="54.74" xlink:href="#linear-gradient"/><linearGradient id="linear-gradient-3" x1="28.87" y1="46.7" x2="56.58" y2="46.7" gradientUnits="userSpaceOnUse"><stop offset="0" stop-color="#fc636b"/><stop offset="1" stop-color="#f94b4b"/></linearGradient><linearGradient id="linear-gradient-4" x1="42.37" y1="50.86" x2="56.58" y2="50.86" gradientUnits="userSpaceOnUse"><stop offset="0" stop-color="#e54b4b"/><stop offset="1" stop-color="#fc636b"/></linearGradient><linearGradient id="linear-gradient-5" x1="48.61" y1="50.58" x2="92.25" y2="50.58" gradientUnits="userSpaceOnUse"><stop offset="0" stop-color="#00e0b7"/><stop offset="1" stop-color="#37c597"/></linearGradient><linearGradient id="linear-gradient-6" x1="77.84" y1="50.58" x2="92.25" y2="50.58" gradientUnits="userSpaceOnUse"><stop offset="0" stop-color="#00b3b7"/><stop offset="1" stop-color="#37a997"/></linearGradient><linearGradient id="linear-gradient-7" x1="20.19" y1="80.64" x2="28.87" y2="80.64" xlink:href="#linear-gradient-3"/><linearGradient id="linear-gradient-8" x1="65.65" y1="80.64" x2="74.33" y2="80.64" xlink:href="#linear-gradient-3"/><linearGradient id="linear-gradient-9" x1="44.84" y1="80.64" x2="53.53" y2="80.64" gradientUnits="userSpaceOnUse"><stop offset="0" stop-color="#ff636b"/><stop offset="1" stop-color="#dc4b4b"/></linearGradient><linearGradient id="linear-gradient-10" x1="90.3" y1="80.64" x2="98.98" y2="80.64" xlink:href="#linear-gradient-9"/><linearGradient id="linear-gradient-11" x1="82.45" y1="1.47" x2="119.27" y2="1.47" xlink:href="#linear-gradient-3"/></defs><title>Asset 6</title><g id="Layer_2" data-name="Layer 2"><g id="Isolation_Mode" data-name="Isolation Mode"><path class="cls-1" d="M24.37,58.39A5.36,5.36,0,1,1,19,53,5.35,5.35,0,0,1,24.37,58.39Z"/><circle class="cls-2" cx="29.65" cy="54.74" r="9"/><polygon class="cls-3" points="56.58 63.74 28.87 63.74 42.73 29.66 46.11 37.97 56.58 63.74"/><polygon class="cls-4" points="56.58 63.74 42.37 63.74 46.11 37.97 56.58 63.74"/><rect class="cls-5" x="48.61" y="37.42" width="43.64" height="26.32"/><rect class="cls-6" x="77.84" y="37.42" width="14.4" height="26.32"/><polygon class="cls-7" points="48.6 40.49 48.6 48.62 49.75 52.86 70.76 47.21 68.13 37.42 59.98 37.42 48.6 40.49"/><path class="cls-8" d="M28.87,80.64a4.34,4.34,0,1,1-4.34-4.34A4.34,4.34,0,0,1,28.87,80.64Z"/><circle class="cls-9" cx="69.99" cy="80.64" r="4.34"/><path class="cls-10" d="M53.53,80.64a4.35,4.35,0,1,1-4.34-4.34A4.35,4.35,0,0,1,53.53,80.64Z"/><circle class="cls-11" cx="94.64" cy="80.64" r="4.34"/><path class="cls-12" d="M115.14,2.25A1.47,1.47,0,0,0,112.66.68l-4.47,7.05H83.92a1.47,1.47,0,1,0,0,2.93H95.25L93.51,23.89H81.8a1.47,1.47,0,1,0,0,2.93H93.13l-2,15H79.45a1.47,1.47,0,0,0,0,2.94H90.77L89.29,56.13H77.57a1.47,1.47,0,0,0,0,2.94H88.9l-.61,4.67H76.57a1.47,1.47,0,0,0,0,2.94h23.79l1,8.16H78a1.47,1.47,0,1,0,0,2.93h25.08a1.46,1.46,0,0,0,1.45-1.65l-1.4-10.91L110.41,9.7ZM98.21,10.66h9.11l-1.73,13.23H96.47ZM96.09,26.82h9.12l-2,15H94.12Zm-2.35,18h9.11l-1.49,11.35H92.25ZM91.86,59.07H101l-.61,4.67H91.25Z"/><path class="cls-13" d="M90.06,2.25A1.47,1.47,0,0,0,87.58.68L83,7.84,1.25,20A1.47,1.47,0,0,0,0,21.6L5.75,65.4a1.48,1.48,0,0,0,1.46,1.28H75.28l1,8.16H12.88a1.47,1.47,0,0,0,0,2.93H78a1.46,1.46,0,0,0,1.1-.5,1.42,1.42,0,0,0,.35-1.15l-1.4-10.91L85.33,9.7ZM51.6,15.47l13.7-2-.88,11.18-13.08.55ZM3.11,22.65l13-1.93.46,5.92L3.7,27.18ZM5.62,41.84,4.09,30.1l12.71-.53,1,12.27ZM6,44.78H18l.79,10.09L7.3,54.63Zm2.48,19-.81-6.17L19,57.81l.47,5.93ZM19,20.29l13.23-2,.2,7.64-12.94.55Zm.72,9.15,12.79-.54.34,12.94H20.71Zm1.2,15.34H33l.27,10.4-11.48-.24Zm1.5,19L22,57.88l11.33.24.15,5.62Zm25,0h-11l-.14-5.56,11.3.25Zm.21-8.25-11.45-.24-.28-10.47h12ZM48,41.84H35.81l-.35-13.06,12.87-.54ZM48.4,25.3l-13,.55-.21-8,13.47-2ZM61.34,63.74h-11l.14-5.25,11.27.24ZM62,55.8l-11.42-.25.28-10.77h12Zm1.1-14H50.91l.36-13.73,12.92-.54Zm12.22,21.9h-11l.39-5L75.9,59Zm1-7.63-11.38-.25.87-11.08h12Zm1.87-14.27H66l1.13-14.4,13-.55Zm2.35-17.9-13.14.56L68.28,13l13.93-2.07Z"/><path class="cls-14" d="M117.8,2.93H83.92a1.47,1.47,0,1,1,0-2.93H117.8a1.47,1.47,0,1,1,0,2.93Z"/><rect class="cls-15" x="9.42" y="85.22" width="100.18" height="3.42" rx="1.71"/></g></g></svg>