<?xml version="1.0" encoding="iso-8859-1"?>
<!-- Generator: Adobe Illustrator 19.0.0, SVG Export Plug-In . SVG Version: 6.00 Build 0)  -->
<svg version="1.1" id="Capa_1" xmlns="http://www.w3.org/2000/svg" xmlns:xlink="http://www.w3.org/1999/xlink" x="0px" y="0px"
	 viewBox="0 0 512.001 512.001" style="enable-background:new 0 0 512.001 512.001;" xml:space="preserve">
<g>
	<g>
		<path d="M39.564,352.709H23.532c-4.705,0-8.532-3.828-8.532-8.532v-16.032c0-4.142-3.358-7.5-7.5-7.5s-7.5,3.358-7.5,7.5v16.032
			c0,12.976,10.557,23.532,23.532,23.532h16.032c4.142,0,7.5-3.358,7.5-7.5C47.064,356.068,43.707,352.709,39.564,352.709z"/>
	</g>
</g>
<g>
	<g>
		<path d="M39.564,64.129H23.532C10.557,64.129,0,74.686,0,87.661v16.032c0,4.142,3.358,7.5,7.5,7.5s7.5-3.358,7.5-7.5V87.661
			c0-4.705,3.828-8.532,8.532-8.532h16.032c4.142,0,7.5-3.358,7.5-7.5C47.064,67.487,43.707,64.129,39.564,64.129z"/>
	</g>
</g>
<g>
	<g>
		<path d="M7.5,256.517c-4.142,0-7.5,3.358-7.5,7.5v32.064c0,4.142,3.358,7.5,7.5,7.5s7.5-3.358,7.5-7.5v-32.064
			C15,259.875,11.642,256.517,7.5,256.517z"/>
	</g>
</g>
<g>
	<g>
		<path d="M7.5,192.388c-4.142,0-7.5,3.358-7.5,7.5v32.064c0,4.142,3.358,7.5,7.5,7.5s7.5-3.358,7.5-7.5v-32.064
			C15,195.746,11.642,192.388,7.5,192.388z"/>
	</g>
</g>
<g>
	<g>
		<path d="M7.5,128.259c-4.142,0-7.5,3.358-7.5,7.5v32.064c0,4.142,3.358,7.5,7.5,7.5s7.5-3.358,7.5-7.5v-32.064
			C15,131.617,11.642,128.259,7.5,128.259z"/>
	</g>
</g>
<g>
	<g>
		<path d="M360.209,256.516c-4.142,0-7.5,3.358-7.5,7.5v32.064c0,4.142,3.358,7.5,7.5,7.5c4.142,0,7.5-3.358,7.5-7.5v-32.064
			C367.709,259.874,364.352,256.516,360.209,256.516z"/>
	</g>
</g>
<g>
	<g>
		<path d="M360.209,192.387c-4.142,0-7.5,3.358-7.5,7.5v32.064c0,4.142,3.358,7.5,7.5,7.5c4.142,0,7.5-3.358,7.5-7.5v-32.064
			C367.709,195.745,364.351,192.387,360.209,192.387z"/>
	</g>
</g>
<g>
	<g>
		<path d="M360.209,128.258c-4.142,0-7.5,3.358-7.5,7.5v32.064c0,4.142,3.358,7.5,7.5,7.5c4.142,0,7.5-3.358,7.5-7.5v-32.064
			C367.709,131.616,364.351,128.258,360.209,128.258z"/>
	</g>
</g>
<g>
	<g>
		<path d="M344.177,64.13h-16.032c-4.142,0-7.5,3.358-7.5,7.5c0,4.142,3.358,7.5,7.5,7.5h16.032c4.705,0,8.532,3.828,8.532,8.532
			v16.032c0,4.142,3.358,7.5,7.5,7.5c4.142,0,7.5-3.358,7.5-7.5V87.661C367.709,74.685,357.152,64.13,344.177,64.13z"/>
	</g>
</g>
<g>
	<g>
		<path d="M103.693,64.129H71.629c-4.142,0-7.5,3.358-7.5,7.5c0,4.142,3.358,7.5,7.5,7.5h32.064c4.142,0,7.5-3.358,7.5-7.5
			C111.193,67.487,107.835,64.129,103.693,64.129z"/>
	</g>
</g>
<g>
	<g>
		<path d="M167.822,64.129h-32.064c-4.142,0-7.5,3.358-7.5,7.5c0,4.142,3.358,7.5,7.5,7.5h32.064c4.142,0,7.5-3.358,7.5-7.5
			C175.322,67.487,171.964,64.129,167.822,64.129z"/>
	</g>
</g>
<g>
	<g>
		<path d="M231.951,64.129h-32.064c-4.142,0-7.5,3.358-7.5,7.5c0,4.142,3.358,7.5,7.5,7.5h32.064c4.142,0,7.5-3.358,7.5-7.5
			C239.451,67.487,236.093,64.129,231.951,64.129z"/>
	</g>
</g>
<g>
	<g>
		<path d="M296.08,64.129h-32.064c-4.142,0-7.5,3.358-7.5,7.5c0,4.142,3.358,7.5,7.5,7.5h32.064c4.142,0,7.5-3.358,7.5-7.5
			C303.58,67.487,300.222,64.129,296.08,64.129z"/>
	</g>
</g>
<g>
	<g>
		<path d="M103.693,352.709H71.629c-4.142,0-7.5,3.358-7.5,7.5c0,4.142,3.358,7.5,7.5,7.5h32.064c4.142,0,7.5-3.358,7.5-7.5
			C111.193,356.068,107.835,352.709,103.693,352.709z"/>
	</g>
</g>
<g>
	<g>
		<path d="M167.823,352.709h-32.064c-4.142,0-7.5,3.358-7.5,7.5c0,4.142,3.358,7.5,7.5,7.5h32.064c4.142,0,7.5-3.358,7.5-7.5
			C175.323,356.068,171.965,352.709,167.823,352.709z"/>
	</g>
</g>
<g>
	<g>
		<path d="M231.952,352.709h-32.064c-4.142,0-7.5,3.358-7.5,7.5c0,4.142,3.358,7.5,7.5,7.5h32.064c4.142,0,7.5-3.358,7.5-7.5
			C239.452,356.068,236.094,352.709,231.952,352.709z"/>
	</g>
</g>
<g>
	<g>
		<path d="M296.081,352.709h-32.064c-4.142,0-7.5,3.358-7.5,7.5c0,4.142,3.358,7.5,7.5,7.5h32.064c4.142,0,7.5-3.357,7.5-7.5
			C303.581,356.068,300.223,352.709,296.081,352.709z"/>
	</g>
</g>
<g>
	<g>
		<path d="M476.443,376.758h-24.048c-9.199,0-17.593,3.512-23.913,9.265l-29.523-19.682c0.529-1.956,0.815-4.01,0.815-6.131
			c0-2.121-0.287-4.175-0.815-6.131l29.523-19.682c6.32,5.753,14.713,9.265,23.913,9.265h24.048
			c19.606,0,35.557-15.95,35.557-35.556c0-19.606-15.951-35.557-35.557-35.557h-24.048c-19.606,0-35.556,15.951-35.556,35.557
			c0,5.001,1.043,9.762,2.915,14.083l-29.126,19.417c-3.981-3.085-8.971-4.929-14.386-4.929s-10.404,1.843-14.385,4.929
			l-85.666-57.111c-3.446-2.298-8.104-1.367-10.4,2.08c-2.298,3.446-1.367,8.103,2.08,10.4l85.655,57.104
			c-0.528,1.956-0.815,4.01-0.815,6.131c0,2.121,0.287,4.175,0.815,6.131l-85.648,57.099c-3.447,2.297-4.378,6.954-2.08,10.4
			c1.445,2.168,3.823,3.341,6.247,3.341c1.429,0,2.875-0.408,4.153-1.261l85.66-57.106c3.981,3.085,8.971,4.929,14.385,4.929
			c5.415,0,10.405-1.843,14.386-4.929l29.126,19.417c-1.872,4.322-2.915,9.082-2.915,14.083c0,19.606,15.95,35.557,35.556,35.557
			h24.048c19.606,0,35.557-15.951,35.557-35.557S496.049,376.758,476.443,376.758z M452.395,287.548h24.048
			c11.335,0,20.557,9.222,20.557,20.557c0,11.334-9.222,20.556-20.557,20.556h-24.048c-11.334,0-20.556-9.222-20.556-20.556
			C431.839,296.77,441.061,287.548,452.395,287.548z M376.242,368.742c-4.705,0-8.532-3.828-8.532-8.533
			c0-4.705,3.828-8.532,8.532-8.532c4.705,0,8.533,3.828,8.533,8.532C384.774,364.915,380.947,368.742,376.242,368.742z
			 M476.443,432.871h-24.048c-11.334,0-20.556-9.222-20.556-20.557c0-11.335,9.222-20.557,20.556-20.557h24.048
			c11.335,0,20.557,9.222,20.557,20.557C497,423.649,487.778,432.871,476.443,432.871z"/>
	</g>
</g>
<g>
	<g>
		<path d="M249.279,150.496c-2.929-2.929-7.678-2.929-10.606,0L118.431,270.737c-2.929,2.929-2.929,7.678,0,10.606
			c1.464,1.464,3.384,2.197,5.303,2.197s3.839-0.732,5.303-2.197l120.242-120.241C252.208,158.173,252.208,153.424,249.279,150.496z
			"/>
	</g>
</g>
<g>
	<g>
		<path d="M143.774,144.291c-17.396,0-31.549,14.152-31.549,31.548s14.153,31.548,31.549,31.548s31.548-14.152,31.548-31.548
			S161.17,144.291,143.774,144.291z M143.774,192.388c-9.125,0-16.549-7.423-16.549-16.548s7.424-16.548,16.549-16.548
			s16.548,7.423,16.548,16.548S152.899,192.388,143.774,192.388z"/>
	</g>
</g>
<g>
	<g>
		<path d="M223.936,224.452c-17.396,0-31.548,14.152-31.548,31.548s14.152,31.548,31.548,31.548s31.548-14.152,31.548-31.548
			S241.332,224.452,223.936,224.452z M223.936,272.548c-9.125,0-16.548-7.423-16.548-16.548s7.423-16.548,16.548-16.548
			s16.548,7.423,16.548,16.548S233.061,272.548,223.936,272.548z"/>
	</g>
</g>
<g>
</g>
<g>
</g>
<g>
</g>
<g>
</g>
<g>
</g>
<g>
</g>
<g>
</g>
<g>
</g>
<g>
</g>
<g>
</g>
<g>
</g>
<g>
</g>
<g>
</g>
<g>
</g>
<g>
</g>
</svg>
