<?xml version="1.0" encoding="utf-8"?>
<!-- Generator: Adobe Illustrator 23.0.0, SVG Export Plug-In . SVG Version: 6.00 Build 0)  -->
<svg version="1.1" id="Layer_1" xmlns="http://www.w3.org/2000/svg" xmlns:xlink="http://www.w3.org/1999/xlink" x="0px" y="0px"
	 viewBox="0 0 54.6 26.4" style="enable-background:new 0 0 54.6 26.4;" xml:space="preserve">
<style type="text/css">
	.st0{fill:url(#SVGID_1_);}
	.st1{fill:#5CD5C4;}
	.st2{fill:url(#SVGID_2_);}
	.st3{opacity:0.15;fill:#A9A9A9;enable-background:new    ;}
</style>
<title>Asset 1</title>
<g>
	<g id="Layer_1-2">
		
			<linearGradient id="SVGID_1_" gradientUnits="userSpaceOnUse" x1="-3387.29" y1="-2534.0657" x2="-3357.1301" y2="-2534.0657" gradientTransform="matrix(1.122415e-11 -0.25 0.25 1.122415e-11 684.0771 -825.78)">
			<stop  offset="0" style="stop-color:#FC636B"/>
			<stop  offset="1" style="stop-color:#F94B4B"/>
		</linearGradient>
		<path class="st0" d="M54.6,12.8c-0.2,0.3-0.3,0.6-0.3,0.9c-0.4,1.8-0.9,3.6-1.3,5.4c-0.2,0.7-0.2,0.8-0.9,0.6
			c-1.6-0.4-3.2-0.9-4.8-1.4c-0.7-0.2-0.7-0.3-0.5-1c0.6-2.4,2.4-4.2,4.8-4.8c1-0.2,2.1-0.2,3.2,0V12.8z"/>
		<path class="st1" d="M4.6,10.7L4.6,10.7C3.7,11.8,2.1,12,1,11.2l0,0c-1.1-0.8-1.3-2.4-0.5-3.5l0,0c0.8-1.1,2.4-1.3,3.5-0.5l0,0
			C5.2,8,5.4,9.6,4.6,10.7z"/>
		
			<linearGradient id="SVGID_2_" gradientUnits="userSpaceOnUse" x1="-742.0638" y1="-2448.3049" x2="-705.7338" y2="-2448.3049" gradientTransform="matrix(-0.34 -0.12 0.12 -0.34 69.9472 -916.86)">
			<stop  offset="0" style="stop-color:#F79D1E"/>
			<stop  offset="1" style="stop-color:#EF4D4E"/>
		</linearGradient>
		<path class="st2" d="M22.6,2.5c0-0.3,0-0.7-0.1-1.1c0,0,0-0.1,0-0.1c-0.1-0.5-0.6-0.8-1.1-0.7c-0.4,0.1-0.7,0.2-1,0.2
			c-0.3,0.1-0.7,0.1-1,0c-0.1,0-0.2-0.1-0.2-0.3c0,0,0,0,0,0c0-0.2,0.1-0.3,0.3-0.3c0.6,0,1.2-0.1,1.8-0.3c0.1,0,0.1,0,0.2,0
			c0.9-0.1,1.7,0.5,1.8,1.4c0.1,0.3,0.1,0.6,0.1,0.9c0.1,0.9,0.6,1.2,1.4,1c0.2,0,0.3-0.1,0.5-0.2C25.5,3,25.8,2.9,26,3
			C27,3,27.7,3.8,27.6,4.8c0.1,1.5,0.5,1.7,1.9,1.3C29.9,6,30.3,5.9,30.7,6c0.2,0,0.4,0.1,0.4,0.3s-0.2,0.3-0.5,0.3
			c-0.4,0-0.9,0.1-1.3,0.2C29.2,6.9,29,7,28.7,7c-1,0-1.7-0.8-1.7-1.8c-0.2-1.5-0.5-1.7-2-1.3c-0.4,0.1-0.8,0.1-1.2,0
			C23.1,3.7,22.7,3.1,22.6,2.5z"/>
		<path class="st3" d="M26.6,26.3l-6.5-1.7c-0.7-0.2-0.7-0.3-0.2-0.8c1.6-1.6,3.2-3.2,4.7-4.7c0.1-0.1,0.2-0.2,0.3-0.3
			c0.3-0.2,0.4-0.2,0.5,0.2c0,0.1,0.1,0.2,0.1,0.3c0.6,2.2,1.1,4.4,1.7,6.6c0,0.2,0.1,0.3,0,0.5C26.9,26.5,26.7,26.4,26.6,26.3z"/>
	</g>
</g>
</svg>
