<svg xmlns="http://www.w3.org/2000/svg" xmlns:xlink="http://www.w3.org/1999/xlink" viewBox="0 0 54.58 26.42"><defs><style>.cls-1{fill:url(#linear-gradient);}.cls-2{fill:#5cd5c4;}.cls-3{fill:url(#linear-gradient-2);}.cls-4{fill:#a9a9a9;opacity:0.15;}</style><linearGradient id="linear-gradient" x1="-971.29" y1="1166.16" x2="-941.13" y2="1166.16" gradientTransform="matrix(0, -0.25, 0.25, 0, -285.99, -221.78)" gradientUnits="userSpaceOnUse"><stop offset="0" stop-color="#fc636b"/><stop offset="1" stop-color="#f94b4b"/></linearGradient><linearGradient id="linear-gradient-2" x1="-1055.91" y1="1251.37" x2="-1019.58" y2="1251.37" gradientTransform="matrix(0.34, -0.12, 0.12, 0.34, 234.48, -548.98)" gradientUnits="userSpaceOnUse"><stop offset="0" stop-color="#f79d1e"/><stop offset="1" stop-color="#ef4d4e"/></linearGradient></defs><title>Asset 1</title><g id="Layer_2" data-name="Layer 2"><g id="Layer_1-2" data-name="Layer 1"><path class="cls-1" d="M0,12.45a7.41,7.41,0,0,1,3.18,0,6.62,6.62,0,0,1,4.75,4.82c.22.74.19.81-.47,1-1.62.48-3.23.95-4.85,1.4-.69.2-.74.16-.93-.57C1.23,17.3.79,15.5.34,13.7A1.77,1.77,0,0,0,0,12.81Z"/><rect class="cls-2" x="49.51" y="6.62" width="5.07" height="5.07" rx="2.53" transform="translate(5.03 33.27) rotate(-37.13)"/><path class="cls-3" d="M30.8,3.88a2,2,0,0,1-1.24,0c-1.54-.38-1.79-.21-2,1.33A1.73,1.73,0,0,1,25.2,6.85a3.68,3.68,0,0,0-1.27-.21c-.22,0-.43-.06-.45-.31S23.72,6,23.9,6a2.28,2.28,0,0,1,1.13.1c1.42.41,1.77.17,1.91-1.32a1.72,1.72,0,0,1,2.42-1.68c.17.05.33.11.51.15.82.17,1.25-.12,1.39-1,0-.3,0-.61.11-.91a1.6,1.6,0,0,1,2-1.34,6.38,6.38,0,0,0,1.79.29.29.29,0,0,1,.28.3c0,.16-.11.22-.23.27a1.55,1.55,0,0,1-1,0c-.32-.08-.64-.18-1-.23a.91.91,0,0,0-1.12.77c-.08.35-.08.71-.13,1.06A1.57,1.57,0,0,1,30.8,3.88Z"/><path class="cls-4" d="M27.43,26.37c-.11-.17,0-.32,0-.48q.84-3.3,1.7-6.62c0-.09.05-.18.08-.27.12-.35.21-.38.48-.16a2,2,0,0,1,.26.25q2.37,2.36,4.73,4.73c.56.57.55.64-.18.83L28,26.32C27.84,26.37,27.64,26.48,27.43,26.37Z"/></g></g></svg>