<?xml version="1.0" encoding="iso-8859-1"?>
<!-- Generator: Adobe Illustrator 19.0.0, SVG Export Plug-In . SVG Version: 6.00 Build 0)  -->
<svg version="1.1" id="Capa_1" xmlns="http://www.w3.org/2000/svg" xmlns:xlink="http://www.w3.org/1999/xlink" x="0px" y="0px"
	 viewBox="0 0 511.999 511.999" style="enable-background:new 0 0 511.999 511.999;" xml:space="preserve">
<g>
	<g>
		<path d="M368.226,0H143.774c-17.396,0-31.549,14.152-31.549,31.548v448.903c0,17.396,14.152,31.548,31.549,31.548h224.451
			c17.396,0,31.549-14.152,31.549-31.548V31.548C399.774,14.152,385.622,0,368.226,0z M384.774,480.452L384.774,480.452
			c0,9.125-7.424,16.548-16.549,16.548H143.774c-9.125,0-16.549-7.424-16.549-16.548V31.548c0-9.125,7.424-16.548,16.549-16.548
			h224.451c9.125,0,16.549,7.424,16.549,16.548V480.452z"/>
	</g>
</g>
<g>
	<g>
		<path d="M360.21,432.871H151.79c-4.143,0-7.5,3.357-7.5,7.5c0,4.142,3.357,7.5,7.5,7.5h208.42c4.143,0,7.5-3.358,7.5-7.5
			C367.71,436.229,364.353,432.871,360.21,432.871z"/>
	</g>
</g>
<g>
	<g>
		<path d="M360.21,32.064H151.79c-4.143,0-7.5,3.358-7.5,7.5c0,4.142,3.357,7.5,7.5,7.5h208.42c4.143,0,7.5-3.358,7.5-7.5
			C367.71,35.422,364.353,32.064,360.21,32.064z"/>
	</g>
</g>
<g>
	<g>
		<path d="M264.017,464.936h-16.033c-4.143,0-7.5,3.358-7.5,7.5c0,4.142,3.357,7.5,7.5,7.5h16.033c4.143,0,7.5-3.358,7.5-7.5
			C271.517,468.294,268.159,464.936,264.017,464.936z"/>
	</g>
</g>
<g>
	<g>
		<path d="M342.835,334.757l-14.574-160.324c-0.732-8.044-7.375-14.11-15.452-14.11h-25.26v-8.532
			c0-17.396-14.153-31.549-31.549-31.549s-31.549,14.152-31.549,31.548v8.532h-25.26c-8.077,0-14.72,6.066-15.452,14.112
			l-14.574,160.323c-0.395,4.331,1.062,8.656,3.994,11.868c2.933,3.211,7.108,5.053,11.457,5.053h142.768
			c4.349,0,8.524-1.842,11.457-5.053C341.774,343.413,343.23,339.088,342.835,334.757z M256,135.242
			c9.125,0,16.549,7.423,16.549,16.548v8.532h-33.098v-8.532h0C239.451,142.665,246.875,135.242,256,135.242z M327.764,336.51
			c-0.153,0.168-0.317,0.168-0.38,0.168H184.616c-0.063,0-0.227,0-0.38-0.168c-0.154-0.168-0.139-0.333-0.134-0.396l14.574-160.321
			c0.024-0.268,0.246-0.471,0.515-0.471h25.26v16.549c0,4.142,3.357,7.5,7.5,7.5s7.5-3.358,7.5-7.5v-16.549h33.098v16.549
			c0,4.142,3.357,7.5,7.5,7.5s7.5-3.358,7.5-7.5v-16.549h25.26c0.269,0,0.49,0.203,0.515,0.47l14.574,160.322
			C327.903,336.177,327.919,336.341,327.764,336.51z"/>
	</g>
</g>
<g>
</g>
<g>
</g>
<g>
</g>
<g>
</g>
<g>
</g>
<g>
</g>
<g>
</g>
<g>
</g>
<g>
</g>
<g>
</g>
<g>
</g>
<g>
</g>
<g>
</g>
<g>
</g>
<g>
</g>
</svg>
