<svg xmlns="http://www.w3.org/2000/svg" xmlns:xlink="http://www.w3.org/1999/xlink" viewBox="0 0 76.74 133.1"><defs><style>.cls-1{fill:url(#linear-gradient);}.cls-2{fill:url(#linear-gradient-2);}.cls-3{fill:url(#linear-gradient-3);}.cls-4{fill:url(#linear-gradient-4);}.cls-5{fill:url(#linear-gradient-5);}.cls-6{fill:url(#linear-gradient-6);}.cls-7{fill:#ffaf84;}.cls-8{fill:url(#linear-gradient-7);}.cls-9{fill:url(#linear-gradient-8);}.cls-10{fill:url(#linear-gradient-9);}.cls-11{fill:url(#linear-gradient-10);}.cls-12{fill:#842f14;}.cls-13{fill:url(#linear-gradient-11);}.cls-14{fill:url(#linear-gradient-12);}.cls-15{fill:url(#linear-gradient-13);}.cls-16{fill:url(#linear-gradient-14);}.cls-17{fill:#c7d5d8;}.cls-18{fill:url(#linear-gradient-15);}.cls-19{fill:url(#linear-gradient-16);}.cls-20{fill:#39b27e;}.cls-21{fill:url(#linear-gradient-17);}.cls-22{fill:url(#linear-gradient-18);}.cls-23{fill:url(#linear-gradient-19);}.cls-24{fill:url(#linear-gradient-20);}.cls-25{fill:#cecece;}.cls-26{opacity:0.1;fill:url(#linear-gradient-21);}.cls-26,.cls-29{isolation:isolate;}.cls-27{fill:url(#linear-gradient-22);}.cls-28{fill:#f3f5f6;}.cls-29{opacity:0.05;}.cls-30{fill:url(#linear-gradient-23);}.cls-31{fill:url(#linear-gradient-24);}.cls-32{fill:url(#linear-gradient-25);}.cls-33{fill:url(#linear-gradient-26);}.cls-34{fill:url(#linear-gradient-27);}</style><linearGradient id="linear-gradient" x1="40.72" y1="890.88" x2="53.9" y2="890.88" gradientTransform="translate(0 -766)" gradientUnits="userSpaceOnUse"><stop offset="0" stop-color="#16263f"/><stop offset="1" stop-color="#2c2c42"/></linearGradient><linearGradient id="linear-gradient-2" x1="50.99" y1="839.44" x2="53.11" y2="887.69" gradientTransform="translate(0 -766)" gradientUnits="userSpaceOnUse"><stop offset="0" stop-color="#6ed5ff"/><stop offset="1" stop-color="#7eb3fc"/></linearGradient><linearGradient id="linear-gradient-3" x1="38.86" y1="830.89" x2="41.36" y2="863.51" xlink:href="#linear-gradient-2"/><linearGradient id="linear-gradient-4" x1="-104.3" y1="946.46" x2="-96.7" y2="910.58" gradientTransform="translate(-31.4 -905.25) rotate(-9)" gradientUnits="userSpaceOnUse"><stop offset="0" stop-color="#a177ff"/><stop offset="1" stop-color="#6563c9"/></linearGradient><linearGradient id="linear-gradient-5" x1="290.42" y1="124.86" x2="306.17" y2="50.5" gradientTransform="translate(-148.76 -231.3) rotate(38.13)" xlink:href="#linear-gradient-4"/><linearGradient id="linear-gradient-6" x1="50.59" y1="892.15" x2="65.38" y2="892.15" xlink:href="#linear-gradient"/><linearGradient id="linear-gradient-7" x1="-1768.82" y1="819.76" x2="-1753.82" y2="748.91" gradientTransform="matrix(-1, 0, 0, 1, -1738.93, -766)" xlink:href="#linear-gradient-4"/><linearGradient id="linear-gradient-8" x1="35.35" y1="870.4" x2="40.85" y2="899.9" xlink:href="#linear-gradient-2"/><linearGradient id="linear-gradient-9" x1="63.34" y1="865.18" x2="68.84" y2="894.68" xlink:href="#linear-gradient-2"/><linearGradient id="linear-gradient-10" x1="57.17" y1="866.32" x2="62.67" y2="895.82" xlink:href="#linear-gradient-2"/><linearGradient id="linear-gradient-11" x1="262.04" y1="474.49" x2="293.21" y2="450.16" gradientTransform="translate(-41.06 -477.08) rotate(21.16)" xlink:href="#linear-gradient-4"/><linearGradient id="linear-gradient-12" x1="64.47" y1="871.42" x2="-47.37" y2="937.47" gradientTransform="translate(0 -766)" gradientUnits="userSpaceOnUse"><stop offset="0" stop-color="#00e0b7"/><stop offset="1" stop-color="#37c597"/></linearGradient><linearGradient id="linear-gradient-13" x1="33.94" y1="758.05" x2="33.94" y2="831.31" xlink:href="#linear-gradient-12"/><linearGradient id="linear-gradient-14" x1="51.31" y1="853.02" x2="-60.53" y2="919.07" xlink:href="#linear-gradient-12"/><linearGradient id="linear-gradient-15" x1="33.94" y1="737.4" x2="33.94" y2="810.67" xlink:href="#linear-gradient-12"/><linearGradient id="linear-gradient-16" x1="33.89" y1="737.4" x2="33.89" y2="810.67" xlink:href="#linear-gradient-12"/><linearGradient id="linear-gradient-17" x1="63.43" y1="869.64" x2="-48.41" y2="935.69" xlink:href="#linear-gradient-12"/><linearGradient id="linear-gradient-18" x1="68.01" y1="877.39" x2="-43.84" y2="943.44" xlink:href="#linear-gradient-12"/><linearGradient id="linear-gradient-19" x1="60.6" y1="864.87" x2="-51.23" y2="930.92" xlink:href="#linear-gradient-12"/><linearGradient id="linear-gradient-20" x1="70.82" y1="882.17" x2="-41.02" y2="948.22" xlink:href="#linear-gradient-12"/><linearGradient id="linear-gradient-21" x1="33.89" y1="741.3" x2="33.89" y2="814.56" gradientTransform="translate(0 -766)" gradientUnits="userSpaceOnUse"><stop offset="0" stop-color="blue"/><stop offset="1" stop-color="#9e005d"/></linearGradient><linearGradient id="linear-gradient-22" x1="33.96" y1="838.12" x2="66.86" y2="838.12" xlink:href="#linear-gradient-12"/><linearGradient id="linear-gradient-23" x1="12.05" y1="156.1" x2="13.72" y2="156.1" gradientTransform="matrix(1, 0, 0, -1, 0, 203.2)" xlink:href="#linear-gradient-21"/><linearGradient id="linear-gradient-24" x1="47.26" y1="78.25" x2="51.02" y2="78.25" gradientTransform="matrix(1, 0, 0, -1, 0, 203.2)" xlink:href="#linear-gradient-21"/><linearGradient id="linear-gradient-25" x1="47.18" y1="93.35" x2="57.71" y2="93.35" gradientTransform="matrix(1, 0, 0, -1, 0, 203.2)" xlink:href="#linear-gradient-21"/><linearGradient id="linear-gradient-26" x1="0.08" y1="151.65" x2="38.82" y2="151.65" gradientTransform="matrix(1, 0, 0, -1, 0, 203.2)" xlink:href="#linear-gradient-21"/><linearGradient id="linear-gradient-27" x1="10.59" y1="89.85" x2="65.37" y2="89.85" gradientTransform="matrix(1, 0, 0, -1, 0, 203.2)" xlink:href="#linear-gradient-21"/></defs><title>Asset 2</title><g id="Layer_2" data-name="Layer 2"><g id="Layer_1-2" data-name="Layer 1"><g id="Isolation_Mode" data-name="Isolation Mode"><path class="cls-1" d="M46.19,122.8a3.69,3.69,0,0,0,2.6,2.4c2.2.8,6.8,1,4.3,2a12.25,12.25,0,0,1-6,.6,29.46,29.46,0,0,0-4.2.1c-2.3.1-2.4,0-2.2-2.6C41.09,121.8,45.09,120.9,46.19,122.8Z"/><path class="cls-2" d="M41.09,122.7c3.8-13.1,5.6-37.7,12.2-47.3,4.2-6.1,12.3-3.7,9.3,4.5-3.2,8.8-11.4,25.1-16,42.5C46.09,124.1,40.59,124.3,41.09,122.7Z"/><path class="cls-3" d="M60.19,82.9c3.5-1.3,6.5-13.3-6.3-11.7-5.7.7-25.9,2.3-29,2.6s-7.5,1.1-8,2.7c-2.4,7.8,7,14.8,18.4,12.2C42.89,87.1,53,85.6,60.19,82.9Z"/><path class="cls-4" d="M25.79,53.2c-1.9,1.4-3.9,1.4-9.4,2-7.9,1-9.8.7-14.9-.5-3.3-.8-.7-7.9,3.8-8.1,3.8-.2,17.2,3.9,19.5,3.8C26.49,50.3,27.29,52,25.79,53.2Z"/><path class="cls-5" d="M.49,51c.3-1.8,1.7-5.7,7.4-14a67.83,67.83,0,0,1,6.6-8.4c2.3-2.5,5.7-1.6,6.4-.1,1.3,2.6,1.3,6.9.2,8.3-6.3,7.9-11.6,13.5-12.8,15.6C6.59,55.6.09,53.2.49,51Z"/><path class="cls-6" d="M56.09,123.9a10,10,0,0,0,4.2,2.8c2.2.8,6.8,1,4.3,2s-5.5.6-7,.4a38.44,38.44,0,0,0-4.8,0c-2.3.1-2.4,0-2.2-2.6C50.89,123,55,122,56.09,123.9Z"/><path class="cls-7" d="M19.39,14.3c.5,4.8.6,5.8,2.7,7.7s5.3,2.2,7.6,2.2,4-2.9,4.6-4.9a30.22,30.22,0,0,0,.5-11.2c-.3-2.6-3.6-5.8-7-5.8S18.19,2.7,19.39,14.3Z"/><path class="cls-7" d="M21.79,22.7c-.1,1.7-.3,3.5-.3,5.3a4.64,4.64,0,0,0,4,4.6h.3c2.1,0,4.5-1.9,4.3-3.9-.1-1.3-.2-2.7-.2-3.9a5.16,5.16,0,0,0-3.6-5h0a3.26,3.26,0,0,0-4.3,2A2.39,2.39,0,0,0,21.79,22.7Z"/><path class="cls-8" d="M12.29,43c3.8,12.5,5.1,20,4.3,28.8h28.7s-.2-21.3-2.1-36a11.25,11.25,0,0,0-6.1-8.5,20.1,20.1,0,0,0-7.7-1.7h-5.3a21,21,0,0,0-5.6.7C10.79,28.7,10.09,35.7,12.29,43Z"/><path class="cls-9" d="M16.69,89.3s-2.5-6-.1-17.6h28.7a171.41,171.41,0,0,1,1,17.6Z"/><path class="cls-10" d="M50.89,124.1c4.9-12.8,8.7-37.1,16-46.2,4.7-5.7,12.6-2.7,8.9,5.2-3.9,8.5-13.4,24.1-19.4,41.1C55.89,125.9,50.29,125.6,50.89,124.1Z"/><path class="cls-11" d="M73.19,86c3.6-1,7.6-12.7-5.4-12.1-5.8.3-26,.1-29.1.2s-7.6.5-8.2,2c-3.1,7.6,5.8,15.3,17.3,13.7C55.69,88.8,65.79,88.1,73.19,86Z"/><path class="cls-7" d="M33.39,13.3c-.6,1.7-.5,3.3.4,3.6s2.1-.7,2.8-2.3.5-3.3-.3-3.6S34.09,11.7,33.39,13.3Z"/><path class="cls-7" d="M21.09,13.3c.7,1.6.5,3.3-.3,3.6s-2.1-.7-2.8-2.3-.5-3.3.3-3.6S20.39,11.7,21.09,13.3Z"/><path class="cls-12" d="M20.79,5c1.8,2.8,10.8,3,13.7,2S37.19.3,33,0c-2.3,0-.6.6-2.6,1.3C29.59,1.6,18.89,2,20.79,5Z"/><path class="cls-7" d="M62.09,67.8c1.4.4,13.1,3.4,11.2,5-2.1,1.8-6.8,1.3-8.3,1-2.7-.6-4.8-2.1-4.6-3.6C60.59,69.1,60.79,67.4,62.09,67.8Z"/><path class="cls-13" d="M63.89,68.9c-1.8-1.3-13.6-8.1-17.9-9.6-.7-2.6-.3-9.9-2.4-19.4-.8-3.5-3.1-5.1-5.8-6-1.7-.5-4.7,1.3-4.4,4.7a75,75,0,0,0,1.4,10.6c2,9.8,3.8,13.6,4.9,15.1,0,.1.1.1.2.2h-.1a.35.35,0,0,0,.2.1c.1.1.2.1.3.2a75.68,75.68,0,0,0,14.5,5.8c5.8,1.7,6,2.3,8.3,1.7a1.84,1.84,0,0,0,1.4-2.2A1.71,1.71,0,0,0,63.89,68.9Z"/><path class="cls-12" d="M30.89,4.5c2.8,1.7,3.4,3.1,3.3,6.5s-1.5,9.2-7.8,10.5-7.7-4.9-8.1-9.2-.1-7.5,3-8.3C26,2.9,29.19,3.5,30.89,4.5Z"/><path class="cls-14" d="M53.69,126a2,2,0,0,1-2-1.7H16.19a2.15,2.15,0,0,1-2.5,1.6,2,2,0,0,1-1.6-2,3.69,3.69,0,0,1,3.7-3.7h36.3a3.69,3.69,0,0,1,3.7,3.7h0a2.05,2.05,0,0,1-2.1,2.1Z"/><path class="cls-15" d="M64.19,89.3h-11c-5.8,0-9.5-3.1-10.3-8.6-1.1-6.8-3.1-29-3.1-29.3A2.66,2.66,0,0,0,37,49a.76.76,0,0,0-.4.1h-33A3.21,3.21,0,0,0,1,52.6c.1.9,2,22.7,3.2,29.6,1.3,8.1,7.1,12.9,15.5,12.9h44a3.25,3.25,0,0,0,3.2-2.9,2.51,2.51,0,0,0-2.1-2.9Z"/><path class="cls-16" d="M29,95.1h9.8v3.6a1.37,1.37,0,0,1-1.4,1.4h-7A1.37,1.37,0,0,1,29,98.7h0V95.1Z"/><rect class="cls-17" x="30.59" y="100.2" width="6.6" height="19.6"/><path class="cls-18" d="M30.89,116.2H37a1.37,1.37,0,0,1,1.4,1.4h0v4.7h-8.9v-4.7a1.37,1.37,0,0,1,1.4-1.4Z"/><path class="cls-19" d="M42.79,126a2,2,0,0,1-2-1.7H27.09a2.15,2.15,0,0,1-2.5,1.6,2,2,0,0,1-1.6-2,3.69,3.69,0,0,1,3.7-3.7h14.4a3.69,3.69,0,0,1,3.7,3.7A2,2,0,0,1,42.79,126Z"/><path class="cls-20" d="M28.59,126.7a2.8,2.8,0,0,1-2.8,2.8,2.86,2.86,0,0,1-2.8-2.8,2.8,2.8,0,0,1,2.8-2.8,2.86,2.86,0,0,1,2.8,2.8Z"/><path class="cls-21" d="M27.19,126.7a2.8,2.8,0,0,1-2.8,2.8,2.86,2.86,0,0,1-2.8-2.8,2.8,2.8,0,0,1,2.8-2.8,2.86,2.86,0,0,1,2.8,2.8Z"/><path class="cls-20" d="M46.29,126.7a2.8,2.8,0,0,1-2.8,2.8,2.86,2.86,0,0,1-2.8-2.8,2.8,2.8,0,0,1,2.8-2.8,2.86,2.86,0,0,1,2.8,2.8Z"/><path class="cls-22" d="M44.89,126.7a2.8,2.8,0,0,1-2.8,2.8,2.86,2.86,0,0,1-2.8-2.8,2.8,2.8,0,0,1,2.8-2.8,2.86,2.86,0,0,1,2.8,2.8Z"/><path class="cls-20" d="M17.59,126.7a2.8,2.8,0,0,1-2.8,2.8,2.86,2.86,0,0,1-2.8-2.8,2.8,2.8,0,0,1,5.6,0Z"/><path class="cls-23" d="M16.29,126.7a2.8,2.8,0,0,1-2.8,2.8,2.86,2.86,0,0,1-2.8-2.8,2.8,2.8,0,0,1,2.8-2.8,2.86,2.86,0,0,1,2.8,2.8Z"/><path class="cls-20" d="M57.19,126.7a2.8,2.8,0,0,1-2.8,2.8,2.86,2.86,0,0,1-2.8-2.8,2.8,2.8,0,0,1,2.8-2.8,2.86,2.86,0,0,1,2.8,2.8Z"/><path class="cls-24" d="M55.79,126.7a2.8,2.8,0,0,1-2.8,2.8,2.86,2.86,0,0,1-2.8-2.8,2.8,2.8,0,0,1,2.8-2.8,2.86,2.86,0,0,1,2.8,2.8Z"/><polygon class="cls-25" points="37.19 102.5 30.59 100.7 30.59 100.2 37.19 100.2 37.19 102.5"/><polygon class="cls-26" points="38.79 97.5 28.99 95.6 28.99 95.1 38.79 95.1 38.79 97.5"/><path class="cls-27" d="M63.59,95.1h-11c-8.4,0-14.2-4.8-15.5-12.9-1.1-7-3.1-28.7-3.2-29.6a3.34,3.34,0,0,1,2.7-3.4,2.56,2.56,0,0,1,3.1,1.9.76.76,0,0,0,.1.4c0,.2,2,22.5,3.1,29.3.9,5.6,4.6,8.6,10.3,8.6h11a2.56,2.56,0,0,1,2.6,2.5v.4A3.09,3.09,0,0,1,63.59,95.1Z"/><path class="cls-28" d="M6,129.7h65.8a1.75,1.75,0,0,1,1.7,1.7h0a1.75,1.75,0,0,1-1.7,1.7H6a1.75,1.75,0,0,1-1.7-1.7h0A1.69,1.69,0,0,1,6,129.7Z"/></g><g class="cls-29"><path class="cls-30" d="M12.09,47.6a13.64,13.64,0,0,1,1.7.4c-.2-.6-.3-1.2-.5-1.8A7.47,7.47,0,0,0,12.09,47.6Z"/><path class="cls-31" d="M50.39,125.6a7,7,0,0,1,.6-.9.52.52,0,0,1-.2-.4h-3.6a3,3,0,0,0,1.6.8A7.49,7.49,0,0,0,50.39,125.6Z"/><path class="cls-32" d="M52.09,120.2h.2c1.8-5.7,3.6-12.8,5.5-19.6a20.82,20.82,0,0,0-3.2-1.2,203.76,203.76,0,0,0-7.3,20.9h4.8Z"/><path class="cls-33" d="M20.59,4.3c-2.2,1-2.6,3.4-2.4,6.8-.8.4-.9,2-.3,3.6a4.88,4.88,0,0,0,1,1.6,10.89,10.89,0,0,0,1,2.5,6.06,6.06,0,0,0,2,3.3,1.7,1.7,0,0,0-.1.7c-.1,1-.1,2-.2,3.1a15.94,15.94,0,0,0-3,.6,10.11,10.11,0,0,0-6.1,4.5,67.42,67.42,0,0,0-4.7,6.2c-4.9,7.2-6.6,11-7.2,13.1-.8,1.8-.8,3.7.5,4.3.5,5.6,2,21.9,3,27.7,1.3,8.1,7.1,12.9,15.5,12.9h9.3v.5h0v3.1a1.37,1.37,0,0,0,1.4,1.4h7a1.37,1.37,0,0,0,1.4-1.4V97.5h0V95.3c-4.4-1.4-7.8-3.6-9-8.4-4.2-16.7,2.7-23.8-9.2-41.8C10.29,29.7,37.29,21.5,25.69,7A35.14,35.14,0,0,0,22,2.9C21.19,3.2,20.59,3.7,20.59,4.3Zm-8.5,43.3a17.41,17.41,0,0,0,1.2-1.4c.2.6.3,1.2.5,1.8A13.64,13.64,0,0,0,12.09,47.6Z"/><path class="cls-34" d="M41.09,120.2h-2.8v-2.6a1.48,1.48,0,0,0-1.2-1.4V102.5h0v-2.3h-6.6v16a1.41,1.41,0,0,0-1.1,1.4v2.6H15.79a3.69,3.69,0,0,0-3.7,3.7v.4a2.82,2.82,0,0,0-1.5,2.5,2.8,2.8,0,0,0,2.8,2.8,1.7,1.7,0,0,0,.7-.1,1.7,1.7,0,0,0,.7.1,2.8,2.8,0,0,0,2.8-2.8h0a2.91,2.91,0,0,0-1.4-2.4h6.6a2.91,2.91,0,0,0-1.4,2.4,2.8,2.8,0,0,0,2.8,2.8,1.7,1.7,0,0,0,.7-.1,1.7,1.7,0,0,0,.7.1,2.8,2.8,0,0,0,2.8-2.8,2.69,2.69,0,0,0-1.4-2.4h13.4a2.91,2.91,0,0,0-1.4,2.4,2.8,2.8,0,0,0,2.8,2.8,1.7,1.7,0,0,0,.7-.1,1.7,1.7,0,0,0,.7.1,2.71,2.71,0,0,0,2.6-1.8h1.1a8.61,8.61,0,0,0,3.2,0,2.19,2.19,0,0,0,.3.5c.1.5.3.7.8.7a2.69,2.69,0,0,0,1.5.5,1.7,1.7,0,0,0,.7-.1,1.7,1.7,0,0,0,.7.1,3,3,0,0,0,1.6-.5,9.7,9.7,0,0,1,1.7.1c1.5.2,4.5.6,7-.4s-2.1-1.2-4.3-2a10.06,10.06,0,0,1-3.9-2.5,165.76,165.76,0,0,1,8.4-19.5,30.28,30.28,0,0,0-7.1-4.1c-1.9,6.9-3.6,13.9-5.5,19.6h-5.1a203.76,203.76,0,0,1,7.3-20.9c-2.8-.9-5.6-1.6-8.3-2.2-1.6,8.1-2.9,16.5-4.5,23h-.3Zm9.8,4.1c0,.1.1.2.2.4a2.36,2.36,0,0,0-.6.9,15.46,15.46,0,0,1-1.5-.4,3.46,3.46,0,0,1-1.6-.8h3.5Z"/></g></g></g></svg>