<svg xmlns="http://www.w3.org/2000/svg" xmlns:xlink="http://www.w3.org/1999/xlink" viewBox="0 0 68.32 147.04"><defs><style>.cls-1{fill:#ffaf84;}.cls-2{fill:#293549;}.cls-3{fill:#ed8c62;}.cls-4{fill:url(#linear-gradient);}.cls-5{fill:url(#linear-gradient-2);}.cls-6{fill:url(#linear-gradient-3);}.cls-7{fill:#d6ddea;}.cls-8{fill:url(#linear-gradient-4);}.cls-9{fill:url(#linear-gradient-5);}.cls-10{fill:#687c99;}.cls-11{fill:#f3f5f6;}</style><linearGradient id="linear-gradient" x1="27.77" y1="29.81" x2="40.51" y2="29.81" gradientUnits="userSpaceOnUse"><stop offset="0" stop-color="#00e0b7"/><stop offset="1" stop-color="#37c597"/></linearGradient><linearGradient id="linear-gradient-2" x1="31.53" y1="43.98" x2="56.68" y2="43.98" xlink:href="#linear-gradient"/><linearGradient id="linear-gradient-3" x1="51.13" y1="30.12" x2="62.9" y2="30.12" gradientUnits="userSpaceOnUse"><stop offset="0" stop-color="#37c597"/><stop offset="1" stop-color="#00e0b7"/></linearGradient><linearGradient id="linear-gradient-4" x1="-173.64" y1="142.44" x2="-162.68" y2="142.44" gradientTransform="matrix(-1, 0, 0, 1, -116.33, 0)" gradientUnits="userSpaceOnUse"><stop offset="0" stop-color="#16263f"/><stop offset="1" stop-color="#2c2c42"/></linearGradient><linearGradient id="linear-gradient-5" x1="-161.4" y1="142.44" x2="-147.56" y2="142.44" xlink:href="#linear-gradient-4"/></defs><title>Asset 1</title><g id="Layer_2" data-name="Layer 2"><g id="Isolation_Mode" data-name="Isolation Mode"><path class="cls-1" d="M68.32,47c.07-2.16-2.69-7.32-5.83-12.45-1.94-3.19-4-6.37-5.7-8.83a2.54,2.54,0,1,0-4.22,2.84c1.9,2.82,3.89,5.9,5.63,8.74a62.67,62.67,0,0,1,4.4,7.87,69.51,69.51,0,0,1-15.44,3.44,2.56,2.56,0,0,0-1.73.92h0a17.08,17.08,0,0,0-2.78,5.12c-.43,1.33-1,4.23.43,4a10.67,10.67,0,0,0,2.8-1.06c1.05-.36,1.26-.35,1.61-1.43s.27-4.16.69-4.8C67.58,49.58,68.28,48.8,68.32,47Z"/><path class="cls-1" d="M38.2,25.21a2.56,2.56,0,0,0-3.59.32,92.88,92.88,0,0,1-6.81,7.33c-2,1.93-3.2,3.2-4.52,3.56-3.43-.8-9.51-9.52-12.61-15.31a.86.86,0,0,1-.07-.1l-.17-.24a1.15,1.15,0,0,0-.14-.17c-.06-.06-.12-.13-.18-.18l-.19-.16-.2-.13L9.48,20l-.2-.08L9,19.85l-.12,0c-1.19-.27-3.06.52-4.71-.13C2.28,18.94-.18,18,0,19.39A4.62,4.62,0,0,0,2.63,23.2c1.39.56,5,.12,6.16.35,2.4,4.29,7.48,17,14,17.94a3,3,0,0,0,.44,0q2.94,0,8.3-5.11a91.1,91.1,0,0,0,7-7.62A2.55,2.55,0,0,0,38.2,25.21Z"/><path class="cls-2" d="M38.57,5.23c-3.39-1.82-3.92,4.82-2.83,7,1.18,2.33,4.64,4.36,5.6,2.47C42.58,12.23,43.13,7.68,38.57,5.23Z"/><path class="cls-3" d="M38.51,28.79a91.1,91.1,0,0,1-7,7.62l-3.7-3.55a92.88,92.88,0,0,0,6.81-7.33,2.54,2.54,0,1,1,3.9,3.26Z"/><path class="cls-4" d="M39.42,29.62c-2.16,2.07-4.4,4.27-6.56,6.44l-5.09-4.9c2.61-2.61,5.05-5,6.78-6.63a3.52,3.52,0,1,1,4.87,5.09Z"/><path class="cls-1" d="M49.3,21c0,2.25-.25,5.09-1.51,7.08l-1.88,3a3,3,0,0,1-5.14-3.08s.24-.42,1.95-3.12a5.79,5.79,0,0,0,.53-2.39,19.79,19.79,0,0,0-.15-4A3,3,0,0,1,49,17.66,27.72,27.72,0,0,1,49.3,21Z"/><path class="cls-5" d="M56.65,26c-1.49,8.51-4.39,29.9-3.76,38.5H31.53s1.28-31.69,3.31-39.41a2.1,2.1,0,0,1,2-1.57H54.56A2.13,2.13,0,0,1,56.65,26Z"/><path class="cls-3" d="M49.3,21a9.46,9.46,0,0,1-5.2,1.55,6.06,6.06,0,0,1-.85-.05,19.79,19.79,0,0,0-.15-4A3,3,0,0,1,49,17.66,27.72,27.72,0,0,1,49.3,21Z"/><path class="cls-1" d="M35.84,11.59c0,5.27,2.88,9.54,8.09,9.54,4.1,0,10.43-4.27,10.43-9.54a9.54,9.54,0,0,0-9.54-9.54C39.55,2.05,35.84,6.32,35.84,11.59Z"/><path class="cls-2" d="M53.22,4c-2.83-2.6-5,3.7-4.47,6.07.56,2.55,3.41,5.38,4.81,3.79C55.37,11.74,57,7.48,53.22,4Z"/><path class="cls-2" d="M51.32,5.53C49,7.18,37,7.44,35,4.49a5.41,5.41,0,0,0,2.38-.11,9.4,9.4,0,0,1-3.11-2,14.07,14.07,0,0,0,5.53-.94c2.67-1.11,8.06-2.64,11.55.36S51.32,5.53,51.32,5.53Z"/><path class="cls-1" d="M55,14.37a3.36,3.36,0,0,1-1.67,2.31,1.35,1.35,0,0,1-2-1.45l.59-3a1.35,1.35,0,0,1,2.35-.62A3.38,3.38,0,0,1,55,14.37Z"/><path class="cls-1" d="M40.6,23.49c-.54,1.86,1.22,3,4.3,2.53a15.05,15.05,0,0,0,6.23-2.53Z"/><path class="cls-3" d="M62.49,34.57,58.2,37.32c-1.74-2.84-3.73-5.92-5.63-8.74a2.54,2.54,0,1,1,4.22-2.84C58.45,28.2,60.55,31.38,62.49,34.57Z"/><path class="cls-6" d="M51.77,29.1c1.72,2.45,3.48,5,5.18,7.59l5.95-3.82c-2.06-3.07-4-5.85-5.36-7.82a3.52,3.52,0,1,0-5.77,4.05Z"/><polygon class="cls-7" points="55.73 141.7 54.93 134.58 51.55 134.94 53.11 142.21 55.73 141.7"/><path class="cls-8" d="M52.36,140.46a1.2,1.2,0,0,0-.58.24c-1.15,1-2.2,2.5-4,2.76s-2.08,1.4.63,1.4,3.75-.09,5.1-.1,1.11.1,3.05.1c1.21,0,.79-2.91,0-4.26A1.24,1.24,0,0,0,55.3,140Z"/><polygon class="cls-7" points="42.76 141.7 41.96 134.58 38.58 134.94 40.14 142.21 42.76 141.7"/><path class="cls-9" d="M39.67,140.46a1.19,1.19,0,0,0-.59.24,18.61,18.61,0,0,1-6.45,2.93c-1.92.28-2,1.23.69,1.23s4.69-.24,5.9-.21,1.67.21,4.64.21c2.28,0,.79-2.91,0-4.26A1.22,1.22,0,0,0,42.6,140Z"/><path class="cls-2" d="M31.32,63.84H53c1.2,6.51.25,10.83-.42,12.84a3.25,3.25,0,0,1,.07.45c0,.23-.14,23.5,1.06,31.47,1.24,8.19,2.36,29.34,2.4,29.58l-5.4.83c0-.23-3.26-21.26-4.5-29.46C45.07,101.7,42.61,81.49,42.47,78h-2c.19,4.22-.65,23.36.42,30.45,1.24,8.19,2.44,29.9,2.47,30.14l-4.87.34c0-.24-3.55-21.16-4.79-29.36-1.21-8-2.11-28.91-2.23-31.76C31,70.78,31.32,63.84,31.32,63.84Z"/><path class="cls-10" d="M55.08,138.57l.43-.08,0-.21c0-.25-2-22.6-3.24-33.27s-1.51-40.87-1.51-41.18v-.21h-.44v.22c0,.3.26,30.52,1.5,41.22S55,138.1,55,138.35Z"/><path class="cls-10" d="M41.16,78.37h.43v-.22c-.18-7.85-.23-14.24-.23-14.31v-.21h-.44v.22c0,.06.06,6.46.23,14.31Z"/><path class="cls-10" d="M41.54,76.38V76h-.22c-1.9,0-2.18-1.58-2.18-2.5V63.62h-.44v9.82c0,1.82,1,2.92,2.62,2.94Z"/><rect class="cls-11" x="27.73" y="144.66" width="34.18" height="2.39" rx="1.19"/></g></g></svg>