<svg xmlns="http://www.w3.org/2000/svg" xmlns:xlink="http://www.w3.org/1999/xlink" viewBox="0 0 75.72 162.57"><defs><style>.cls-1{fill:#d6ddea;}.cls-2{fill:url(#linear-gradient);}.cls-3{fill:#4e4a68;}.cls-4{fill:#ffaf84;}.cls-5{fill:#6563c9;}.cls-6{fill:#ed8c62;}.cls-7{fill:url(#linear-gradient-2);}.cls-8{fill:#b6d0ff;}.cls-9{opacity:0.2;fill:url(#linear-gradient-3);}.cls-13,.cls-9{isolation:isolate;}.cls-10{fill:#293549;}.cls-11{fill:#a177ff;}.cls-12{fill:#f3f5f6;}.cls-13{opacity:0.05;fill:url(#linear-gradient-4);}</style><linearGradient id="linear-gradient" x1="-1722.01" y1="968.42" x2="-1709.89" y2="968.42" gradientTransform="matrix(-1, 0, 0, 1, -1668.07, -812)" gradientUnits="userSpaceOnUse"><stop offset="0" stop-color="#252428"/><stop offset="1" stop-color="#2c2c42"/></linearGradient><linearGradient id="linear-gradient-2" x1="-1733.88" y1="858.47" x2="-1677.08" y2="858.47" gradientTransform="matrix(-1, 0, 0, 1, -1668.07, -812)" gradientUnits="userSpaceOnUse"><stop offset="0" stop-color="#00e0b7"/><stop offset="1" stop-color="#37c597"/></linearGradient><linearGradient id="linear-gradient-3" x1="-1724.08" y1="858.82" x2="-1721.58" y2="858.82" gradientTransform="matrix(-1, 0, 0, 1, -1668.07, -812)" gradientUnits="userSpaceOnUse"><stop offset="0" stop-color="blue"/><stop offset="1" stop-color="#9e005d"/></linearGradient><linearGradient id="linear-gradient-4" x1="36.06" y1="74.77" x2="65.8" y2="74.77" gradientTransform="matrix(1, 0, 0, -1, 0, 141.75)" xlink:href="#linear-gradient-3"/></defs><title>Asset 1</title><g id="Layer_2" data-name="Layer 2"><g id="Layer_1-2" data-name="Layer 1"><g id="Isolation_Mode" data-name="Isolation Mode"><polygon class="cls-1" points="51.9 155.47 51.3 147.17 47.5 147.57 48.9 156.07 51.9 155.47"/><path class="cls-2" d="M48.6,154.07a1.08,1.08,0,0,0-.7.3,16.54,16.54,0,0,1-4.1,2.8c-2,.8-3.2,2,0,2s4-.1,5-.1c1.4,0,.8.1,4.2.1,1.7,0,.9-3.2,0-4.7-.3-.5-.4-.9-1-.8Z"/><polygon class="cls-1" points="41.9 155.47 40.1 147.37 36.2 147.77 38.9 156.07 41.9 155.47"/><path class="cls-3" d="M38.3,154.07a1.08,1.08,0,0,0-.7.3,21.73,21.73,0,0,1-7.4,3.4c-2.2.3-2.3,1.4.8,1.4s5.4-.3,6.8-.2a49.26,49.26,0,0,0,5.3.2c2.6,0,.9-3.3,0-4.9a1.34,1.34,0,0,0-1.4-.6Z"/><path class="cls-4" d="M1.4,8c1,.7,2,1.3,3,1.9a4.84,4.84,0,0,1,1.8.7c.7.5,4,2.8,4.9,5.8.4.9.9,1.9,1.4,2.8l.3.6.3.5c.5.9.9,1.8,1.4,2.6,1.8,3.1,3.3,5.5,4.1,6,2.7,1.4,10.8.5,15.8-.6a2.77,2.77,0,1,1,1.2,5.4h-.1a61.61,61.61,0,0,1-12.1,1.5,16.6,16.6,0,0,1-7.3-1.3c-2-1-3.9-5.1-5.3-8.8l-.9-2.4-.6-1.6V21c-.3-.9-.5-1.6-.7-2.1-.4-1-.6-1.4-.9-2.1s-3.3-.7-4.6-1.6-1.1-3-.6-4.5c0-.1.1-.2.2-.3l-.7-.3C.3,8.87-1.2,5.87,1.4,8Z"/><path class="cls-4" d="M33.2,13.87a10,10,0,0,1,9.7-10.3h.3a10.37,10.37,0,0,1,10.4,10.3c0,4-2.1,8.4-5.4,10.1a12.94,12.94,0,0,1-1.7,7.9,29.75,29.75,0,0,0-2,3.3,3.31,3.31,0,0,1-2.8,1.6,3.34,3.34,0,0,1-2.9-4.9s.3-.5,2.1-3.4a4.87,4.87,0,0,0,.7-3.3C35,26.37,33.2,19,33.2,13.87Z"/><path class="cls-5" d="M40.7,90.17c.2,6.7.7,21.8,1.3,29.3.7,8.8,5.5,32.8,5.5,33.1h5.2c0-.3-.7-24.9-1.4-33.8-.7-8.6.1-27.9.3-31.5a34.09,34.09,0,0,0,.4-14.9H28.7a90.82,90.82,0,0,0-.1,13.8c-.1,2.4-1.1,20.4-1.2,29-.2,10.9,8.8,34.8,9.9,37.8l5.1-.3c-5.2-23.1-5.8-29.6-5.7-37.3C36.8,108.67,39.4,96.07,40.7,90.17Z"/><path class="cls-4" d="M50.3,31s3.8,18.1,4.5,21.4a3,3,0,0,0,2.4,2.4,2.2,2.2,0,0,0,.8.1c1.1,0,2.2-1.7,5.5-6.6l.3-.5L65,46l.3-.5,2.6-3.7c1,.3,3.8,1.9,4.9,1.9,1.5,0,3.4-.2,2.8-1.6a5.55,5.55,0,0,0-3.6-2.9,21.36,21.36,0,0,1-2.7-.9.1.1,0,0,1-.1-.1l-.3-.1c-.1,0-.2-.1-.3-.1l-.3-.1H67.2l-.3.1c-.1,0-.2,0-.2.1s-.2.1-.3.1l-.2.1c-.1.1-.2.1-.2.2l-.2.2.2.3-.1.1c-1.1,1.5-2.3,3-3.4,4.5l-.4.5c-.5.6-1,1.2-1.4,1.7l-.4.4a10.63,10.63,0,0,1-.9,1.1c-.2-.9-.4-1.8-.6-2.8l-.1-.4c-1.3-6.3-3-14.3-3-14.3Z"/><path class="cls-6" d="M60.3,46.27l3.3,2.2.3-.5,1.2-1.8.3-.5-3-2-.4.5c-.5.6-1,1.2-1.4,1.7Z"/><path class="cls-7" d="M13.8,20.57c3.3,6.4,4.8,7.7,5.1,7.9,2.5,1.2,8.4.7,13.2-.3a11.36,11.36,0,0,1,2.5-.6H53.9a2.16,2.16,0,0,1,2.2,1.8h0s2.2,10.3,3.5,16.9L60.7,45l5.1,4.1c-3.9,4.8-5.9,6.4-7.9,6.4h0a3.75,3.75,0,0,1-1-.1,3,3,0,0,1-1-.4,3.51,3.51,0,0,1-1.7-2.4c-.2-.7-.4-2.1-.8-3.8-1.1,9-2.7,10.8-1.5,23.6H28.7s.9-23.7,2.5-36.4a40.28,40.28,0,0,1-8.5.2,16.84,16.84,0,0,1-6.9-1.8c-.8-.5-2-1.1-6.8-10.3Z"/><path class="cls-8" d="M60.7,45l5.1,4.1.8-1L61.5,44Z"/><path class="cls-6" d="M9.3,20.87V21l.6,1.6,3.2-2.3-.3-.5-.3-.6Z"/><path class="cls-8" d="M8.4,23a9.25,9.25,0,0,1,.5,1l4.8-3.5-.5-1Z"/><path class="cls-9" d="M53.5,48.77c.4,1.7.7,3.1.8,3.8A3.51,3.51,0,0,0,56,55l-1.2-16.3C54.4,41.67,53.9,45.17,53.5,48.77Z"/><path class="cls-10" d="M32.8,1.87s.2,1.6,3.8-.1c6.9-3.1,13.9-1.5,15.8,0s2.1,2.9,1.5,4.1a7.07,7.07,0,0,1,2.5,4.6c0,5.9-3.7,11.9-7.8,11.9-6.5,0-9.3-7.9-9-12.4,0-.4.1-.8.1-1.2l-.5.1C31.7,10.37,32.8,1.87,32.8,1.87Z"/><path class="cls-4" d="M43.4,14.37a3.51,3.51,0,0,1-1.3,2.7,1.43,1.43,0,0,1-2-.2,1.61,1.61,0,0,1-.3-.9v-3.2a1.37,1.37,0,0,1,1.4-1.4,1.61,1.61,0,0,1,.9.3A3.37,3.37,0,0,1,43.4,14.37Z"/><path class="cls-11" d="M38.3,152.77l.5-.1c-.1-.3-7.3-23.4-8.1-27.1a46.44,46.44,0,0,1-1.4-11.2c.1-3.2,1.9-28.7,1.9-28.9-.3-3.1-.5-13.1-.5-13.2H30c0,.1.2,10.1.5,13.2,0,.2-1.8,25.7-1.9,28.9a47.9,47.9,0,0,0,1.4,11.3C31,129.37,38.2,152.47,38.3,152.77Z"/><rect class="cls-11" x="45" y="74.37" width="7.8" height="0.5"/><path class="cls-12" d="M27.5,159.17H61a1.75,1.75,0,0,1,1.7,1.7h0a1.75,1.75,0,0,1-1.7,1.7H27.5a1.75,1.75,0,0,1-1.7-1.7h0A1.69,1.69,0,0,1,27.5,159.17Z"/></g><path class="cls-13" d="M59.6,46.27c-1.4-6.6-3.5-16.9-3.5-16.9a2.34,2.34,0,0,0-2.2-1.8h-13c-5.2,17.8-6.7,37.8-2.1,55.2,2.7,10.2,7,18,12.2,23.6.1-8.2.4-16.9.5-19.2a34.09,34.09,0,0,0,.4-14.9h0c-1.2-12.8.4-14.6,1.5-23.6.4,1.7.6,3.1.8,3.8a3.51,3.51,0,0,0,1.7,2.4,3,3,0,0,0,1,.4,3.08,3.08,0,0,0,1,.1c2,0,4-1.7,7.9-6.4l-5.1-4.1Z"/></g></g></svg>