<svg xmlns="http://www.w3.org/2000/svg" xmlns:xlink="http://www.w3.org/1999/xlink" viewBox="0 0 67.94 111.49"><defs><style>.cls-1{fill:#d4dddf;}.cls-2{fill:#bdc9ce;}.cls-3{opacity:0.1;}.cls-4{fill:url(#linear-gradient);}.cls-5{fill:url(#linear-gradient-2);}.cls-6{fill:#f3f5f6;}</style><linearGradient id="linear-gradient" x1="-130.94" y1="89.06" x2="-130.94" y2="106.01" gradientTransform="matrix(-1, 0, 0, 1, -88.43, 0)" gradientUnits="userSpaceOnUse"><stop offset="0" stop-color="#fc636b"/><stop offset="1" stop-color="#f94b4b"/></linearGradient><linearGradient id="linear-gradient-2" x1="-130.94" y1="93.38" x2="-130.94" y2="86" gradientTransform="matrix(-1, 0, 0, 1, -88.43, 0)" gradientUnits="userSpaceOnUse"><stop offset="0" stop-color="#f94b4b"/><stop offset="1" stop-color="#fc636b"/></linearGradient></defs><title>Asset 7</title><g id="Layer_2" data-name="Layer 2"><g id="Isolation_Mode" data-name="Isolation Mode"><path class="cls-1" d="M40.45,90.23c3.13-2-.87-8.07-8.14-8.66a14.65,14.65,0,0,0-.06,6.05C32.86,90.05,36.08,93,40.45,90.23Z"/><path class="cls-2" d="M44.64,90.72c3.64-.71,2.14-7.83-4.4-11A14.5,14.5,0,0,0,38,85.28C37.64,87.77,39.56,91.71,44.64,90.72Z"/><path class="cls-1" d="M47.18,91.21c3.23.9,4.91-5.47.92-10.72A13.19,13.19,0,0,0,44,84.1C42.72,86,42.66,89.94,47.18,91.21Z"/><path class="cls-2" d="M48.59,90.39c2.25,2,6.11-2.48,5-8.29a11.82,11.82,0,0,0-4.75,1.29C47,84.41,45.44,87.59,48.59,90.39Z"/><path class="cls-2" d="M55.09,75.4c12.37-4.85,2.48-29-22.71-36.1,0,0-4.93,10.74-4.38,21.25C28.47,69.52,37.78,82.19,55.09,75.4Z"/><path class="cls-1" d="M34.9,42.35a22.65,22.65,0,0,1,5.76,6.08,16.77,16.77,0,0,1,1.12,1.75c.34.6.74,1.16,1,1.8s.6,1.24.9,1.86l.46.93.36,1A52.82,52.82,0,0,1,47,63.65c.26,1.36.56,2.72.83,4.07l.49,4.15c.09.7.22,1.38.26,2.08l.1,2.1c.08,1.39.13,2.79.23,4.19,0,2.82,0,5.63-.08,8.46-.08,1.41-.18,2.82-.24,4.24l-.08,2.14,0,1.07-.11,1.06L48,101.48l-.16,2.15-.11,2.16.2,0,1.49-8.46.18-1.06.12-1.07L50,93.1l.47-4.27.11-1.07,0-1.07.09-2.15.16-4.3-.16-4.3-.08-2.15c0-.72-.16-1.43-.23-2.14l-.56-4.27-.93-4.21A47.59,47.59,0,0,0,46,55.06l-.43-1-.53-.94-1-1.88c-.34-.64-.81-1.19-1.2-1.79a15.51,15.51,0,0,0-1.3-1.72A20.92,20.92,0,0,0,35,42.17Z"/><path class="cls-1" d="M47.29,63.54c-9.41-3.69-1.89-22.09,17.28-27.47,0,0,3.76,8.17,3.34,16.17C67.55,59.06,60.46,68.71,47.29,63.54Z"/><path class="cls-2" d="M62.57,38.27a56.14,56.14,0,0,0-5.09,7.31c-.73,1.29-1.45,2.59-2.11,3.93l-1,2-.93,2a99.84,99.84,0,0,0-5.77,16.89c-.33,1.45-.62,2.91-.93,4.37L46.3,77,46,79.19l-.62,4.41c-.15,1.48-.26,3-.36,4.45l-.16,2.22c0,.74,0,1.48,0,2.23l-.09,4.44c0,1.48.15,3,.21,4.45s.19,3,.32,4.42h.16c.05-3,0-5.89.14-8.83l.28-4.41c.05-.73.09-1.47.15-2.2l.25-2.19.51-4.39.72-4.35.36-2.18.46-2.16c.32-1.44.61-2.88.95-4.31A123.92,123.92,0,0,1,54.57,54a84.3,84.3,0,0,1,8.12-15.63Z"/><path class="cls-1" d="M42.11,52.8C59.88,47.36,48.67,12.57,14.27,0c0,0-8,14.46-8.39,29.18C5.58,41.75,17.23,60.43,42.11,52.8Z"/><path class="cls-2" d="M17.43,4.48c.65.91,1.28,1.84,1.86,2.79s1.2,1.87,1.78,2.82S22.2,12,22.73,13s1.1,1.93,1.57,2.94c1,2,2.07,3.91,2.95,6,.46,1,.94,2,1.41,3l1.28,3.06,1.28,3,1.14,3.1,1.16,3.1c.39,1,.67,2.1,1,3.15s.67,2.09,1,3.14L36.05,45c.16.53.28,1.06.43,1.6L38.16,53c.51,2.14.93,4.3,1.4,6.45.22,1.08.49,2.15.67,3.24s.32,2.18.51,3.27c.34,2.18.74,4.35,1,6.54s.45,4.4.7,6.6l.37,3.3L43,85.74l.41,6.65c.27,4.45.1,8.91.36,13.41l.24,0,.4-6.7.19-3.35c.07-1.12.15-2.24.11-3.36l-.05-6.71,0-3.36L44.41,79l-.49-6.7c-.25-2.22-.6-4.43-.89-6.65l-.47-3.33c-.17-1.11-.43-2.2-.64-3.3-.46-2.19-.87-4.39-1.37-6.57A142.77,142.77,0,0,0,31.7,27.1,101.18,101.18,0,0,0,17.61,4.31Z"/><path class="cls-2" d="M32,69C42.88,61.12,27.1,40,.69,39.42c0,0-2.12,11.74,1.07,21.88C4.49,70,16.8,80,32,69Z"/><path class="cls-1" d="M3.89,41.74a54.57,54.57,0,0,1,7.47,6l1.75,1.63,1.67,1.71c1.13,1.12,2.15,2.35,3.18,3.56a108.35,108.35,0,0,1,10.88,15.6l2.28,4.18c.4.69.74,1.41,1.07,2.13l1,2.17,1,2.15c.17.36.36.71.52,1.08l.44,1.11c.58,1.49,1.2,3,1.82,4.43s1.15,3,1.68,4.5l1.58,4.54c1,3,1.82,6.17,2.89,9.25l.17,0c-.72-3.15-1.38-6.31-2.16-9.45L39.8,91.69c-.47-1.54-.88-3.11-1.48-4.61l-1.69-4.55-.42-1.13c-.15-.38-.33-.74-.49-1.11l-1-2.21-1-2.21a23.18,23.18,0,0,0-1.07-2.18l-2.28-4.28A90.89,90.89,0,0,0,19,53.75c-1.11-1.18-2.2-2.38-3.4-3.46l-1.76-1.66L12,47.06a48.53,48.53,0,0,0-8-5.48Z"/><path class="cls-3" d="M28.81,36.33a16.59,16.59,0,0,0-4.16-2.23c-.72-.3-1.47-.5-2.21-.73s-1.51-.36-2.27-.52a24.16,24.16,0,0,0-4.66-.37,13.84,13.84,0,0,0-4.68.87v.17a46.62,46.62,0,0,1,9,.94,87.09,87.09,0,0,1,8.88,2Z"/><path class="cls-3" d="M26,26.36a12.4,12.4,0,0,0-3.12-2.48A18.82,18.82,0,0,0,21.12,23c-.6-.26-1.21-.48-1.82-.7a17.61,17.61,0,0,0-3.83-.79,10.36,10.36,0,0,0-4,.37l0,.16a38.7,38.7,0,0,1,7.35,1.81,75.06,75.06,0,0,1,7.11,2.67Z"/><path class="cls-3" d="M38.44,34.18a13.37,13.37,0,0,0,1.21-2.33c.3-.76.58-1.48.82-2.17.08-.37.24-.69.35-1l.17-.51a3.12,3.12,0,0,0,.19-.49,11.57,11.57,0,0,1,1.11-2.13l0-.14a4.66,4.66,0,0,0-2,1.55,8,8,0,0,0-1.18,2.26,15.24,15.24,0,0,0-.76,5Z"/><path class="cls-3" d="M32.59,23.32a9.59,9.59,0,0,0,.49-2c.1-.62.15-1.21.21-1.79s.09-1.13.15-1.68a6.7,6.7,0,0,1,.42-1.79L33.79,16a3.54,3.54,0,0,0-1.18,1.55,6.33,6.33,0,0,0-.45,1.91,14.13,14.13,0,0,0,.32,3.89Z"/><path class="cls-4" d="M34.88,108.07H50.15a1.5,1.5,0,0,0,1.49-1.32L53.75,89a1.5,1.5,0,0,0-1.49-1.67H32.77A1.5,1.5,0,0,0,31.28,89l2.11,17.71A1.5,1.5,0,0,0,34.88,108.07Z"/><path class="cls-5" d="M30.8,90.88H54.23a1,1,0,0,0,1-.84l.46-3a1,1,0,0,0-1-1.14H30.34a1,1,0,0,0-1,1.14l.46,3A1,1,0,0,0,30.8,90.88Z"/><rect class="cls-6" x="28.1" y="108.07" width="29.18" height="3.42" rx="1.71"/></g></g></svg>