<?xml version="1.0" encoding="UTF-8"?>
<svg width="100pt" height="100pt" fill="#5dd5c4" version="1.1" viewBox="0 0 100 100" xmlns="http://www.w3.org/2000/svg">
 <path d="m47.301 44.301c0 7.6016-11.602 19.801-15.5 24-1.5 1.6016-4 1.6016-5.5 0.10156l-0.10156-0.10156c-1.3984-1.3984-1.3984-3.6992-0.10156-5.1992 1.6992-1.6992 3.1992-3.6016 4.6016-5.3984-6-1.4023-10.699-6.9023-10.699-13.402 0-7.5 6.1016-13.699 13.699-13.699 7.6016 0 13.602 6.0977 13.602 13.699zm19-13.699c-7.5 0-13.699 6.1016-13.699 13.699 0 6.6016 4.6992 12.102 10.898 13.398-1.5 1.8984-3 3.6992-4.6016 5.3984-1.3984 1.5-1.3008 3.6992 0.10156 5.1992l0.10156 0.10156c1.5 1.6016 4 1.5 5.5-0.10156 3.8984-4.1016 15.5-16.398 15.5-24-0.10156-7.5977-6.2031-13.695-13.801-13.695z"/>
</svg>
