<svg xmlns="http://www.w3.org/2000/svg" xmlns:xlink="http://www.w3.org/1999/xlink" viewBox="0 0 512 512"><defs><style>.cls-1{fill:url(#linear-gradient);}.cls-2{fill:#4cdaf2;}.cls-3{fill:#27bfe2;}.cls-4{fill:#2b2d34;}</style><linearGradient id="linear-gradient" x1="279.49" y1="227.03" x2="498.33" y2="227.03" gradientUnits="userSpaceOnUse"><stop offset="0" stop-color="#6ed5ff"/><stop offset="1" stop-color="#7eb3fc"/></linearGradient></defs><title>Asset 1</title><g id="Layer_2" data-name="Layer 2"><g id="Capa_1" data-name="Capa 1"><polyline class="cls-1" points="498.33 19 300.14 305.1 279.49 334.93 279.49 435.06 354.8 361.46 316.33 289.67"/><polyline class="cls-2" points="209.5 313.51 64 269 502 10 502 403 283 336"/><polygon class="cls-3" points="279.49 435.06 213.35 314.69 498.33 19 285.63 326.05 279.49 435.06"/><path class="cls-4" d="M507,1.31a10,10,0,0,0-10,.08L313.66,109.76A10,10,0,0,0,323.83,127L455.32,49.22,210.41,303.34,88.6,266.07l159-94a10,10,0,0,0-10.18-17.22L58.91,260.39a10,10,0,0,0,2.16,18.17l145.47,44.51,64.18,116.81a2.77,2.77,0,0,0,.21.31,10,10,0,0,0,15.54,2l73.8-72.12,138.8,42.46A9.82,9.82,0,0,0,502,413a10,10,0,0,0,10-10V10A10,10,0,0,0,507,1.31ZM419.58,115.12,271.26,329.23a10,10,0,0,0-1.77,5.69V396.1l-43.83-79.77ZM289.49,411.31V348.44l49,15Zm6-81.94L492,45.7V389.48Z"/><path class="cls-4" d="M164.42,347.58a10,10,0,0,0-14.14,0L56.93,440.93a10,10,0,1,0,14.14,14.14l93.35-93.35A10,10,0,0,0,164.42,347.58Z"/><path class="cls-4" d="M25.93,471.93l-23,23a10,10,0,1,0,14.14,14.14l23-23a10,10,0,0,0-14.14-14.14Z"/><path class="cls-4" d="M135.58,491.41a10,10,0,1,0,7.07,2.93A10.06,10.06,0,0,0,135.58,491.41Z"/><path class="cls-4" d="M202.91,419.94l-49.45,49.44a10,10,0,1,0,14.14,14.14l49.45-49.44a10,10,0,1,0-14.14-14.14Z"/><path class="cls-4" d="M373.56,416.14,324,465.72a10,10,0,1,0,14.14,14.14l49.58-49.58a10,10,0,0,0-14.14-14.14Z"/><path d="M276.43,153.38a10,10,0,1,0-7.07-2.93A10,10,0,0,0,276.43,153.38Z"/></g></g></svg>