<svg xmlns="http://www.w3.org/2000/svg" viewBox="0 0 512.001 512.001">
    <path d="M178.207 270.744a17.615 17.615 0 0 0 13.184 14.71l79.787 19.947c3.737.934 3.779 6.234.042 7.169l-79.874 19.968c-6.99 1.747-12.166 7.563-13.14 14.702l-21.152 155.113c-.582 4.267-6.75 4.267-7.332 0l-21.151-155.11c-.974-7.139-6.151-12.955-13.142-14.702-19.444-4.859-58.701-14.672-79.876-19.966-3.737-.934-3.737-6.224 0-7.158a1503570 1503570 0 0 0 79.879-19.972c6.989-1.748 12.165-7.563 13.138-14.701l21.152-155.115c.582-4.267 6.749-4.277 7.331-.01l21.154 155.125z"
          fill="#ffc850"/>
    <path d="M354.92 108.919c-4.66-1.118-8.141-4.846-8.79-9.415L332.335 2.383c-.452-3.185-5.049-3.173-5.502.012l-13.794 97.108c-.648 4.568-4.1 8.29-8.759 9.409L252.67 121.3c-2.831.68-2.831 4.69 0 5.37 14.424 3.462 39.134 9.392 51.609 12.384 4.66 1.118 8.112 4.84 8.761 9.409l13.754 96.827c.459 3.23 5.123 3.23 5.582 0l13.754-96.829c.649-4.569 4.101-8.291 8.76-9.409l51.57-12.376c2.841-.682 2.804-4.714-.037-5.396l-51.503-12.361z"
          fill="#ffdc64"/>
    <path d="M437.953 402.47c-3.728-.909-6.513-3.937-7.032-7.65l-10.5-75.073c-.445-3.183-5.036-3.128-5.481.055l-10.492 75.017c-.519 3.712-3.28 6.736-7.007 7.645l-39.226 9.562c-2.82.687-2.82 4.681 0 5.368l39.225 9.56c3.729.908 6.49 3.932 7.009 7.645l10.491 75.014c.445 3.183 5.044 3.183 5.489 0l10.492-75.015c.519-3.712 3.28-6.736 7.008-7.645l39.223-9.56c2.82-.687 2.786-4.689-.034-5.376l-39.165-9.547z"
          fill="#fff082"/>
    <path d="M157.056 502.352l18.635-136.659c-20.206-40.974-35.147-83.487-44.554-113.76l-2.565 18.81c-.974 7.138-6.149 12.953-13.138 14.701-19.443 4.863-58.703 14.678-79.879 19.972-3.737.935-3.737 6.224 0 7.158 21.176 5.294 60.432 15.108 79.876 19.966 6.991 1.747 12.168 7.563 13.142 14.702l21.151 155.11c.581 4.267 6.75 4.267 7.332 0z"
          fill="#ebaf4b"/>
    <path d="M314.278 90.783l-1.239 8.721c-.648 4.568-4.1 8.29-8.759 9.409l-51.61 12.388c-2.832.68-2.832 4.69 0 5.37l51.609 12.384c4.66 1.118 8.112 4.84 8.761 9.409l13.754 96.827c.459 3.23 5.123 3.23 5.583 0l12.308-86.651c-16.123-23.073-25.31-48.35-30.407-67.857z"
          fill="#ffc850"/>
    <path d="M404.45 434.6l10.491 75.014c.445 3.183 5.044 3.183 5.489 0l9.832-70.294c-14.762-16.341-21.839-35.866-25.146-49.263l-.666 4.764c-.519 3.712-3.28 6.736-7.007 7.645l-39.226 9.562c-2.82.687-2.82 4.681 0 5.368l39.225 9.56c3.727.907 6.488 3.931 7.008 7.644z"
          fill="#ffdc64"/>
</svg>