<svg height="512pt" viewBox="-70 0 512 512" width="512pt" xmlns="http://www.w3.org/2000/svg"><path d="m231.25 10h108.335938c12.410156 0 22.46875 10.058594 22.46875 22.46875v144.511719h-352.054688v-144.511719c0-12.410156 10.058594-22.46875 22.46875-22.46875h108.335938" fill="#f8a2aa"/><path d="m184.804688 226.023438h154.789062c12.402344 0 22.460938-10.058594 22.460938-22.46875v-26.574219h-352.054688v26.574219c0 12.410156 10.058594 22.46875 22.464844 22.46875h103.78125" fill="#f6838d"/><path d="m316.792969 297.964844c-.609375-11.621094-9.90625-21.253906-21.648438-21.582032-12.039062-.332031-22.003906 8.875-22.863281 20.621094h-.152344c-.402344-5.488281-2.796875-10.425781-6.460937-14.097656-4.042969-4.039062-9.617188-6.535156-15.777344-6.535156-11.761719 0-21.386719 9.09375-22.234375 20.632812h-.152344c-.847656-11.539062-10.472656-20.632812-22.226562-20.632812-11.761719 0-21.386719 9.09375-22.230469 20.632812h-.15625c-.011719-.203125-.050781-.402344-.074219-.609375 0 0-.007812-97.429687-.03125-97.832031-.597656-11.621094-9.894531-21.242188-21.632812-21.574219-12.332032-.347656-22.484375 9.324219-22.917969 21.449219-.007813.042969-.007813.085938-.007813.125l.125 155.542969h-38.039062c-11.886719 0-21.523438 9.640625-21.523438 21.53125s9.636719 21.53125 21.523438 21.53125h20.179688c29.429687 0 61.917968 47.472656 61.917968 47.472656v57.359375h89.589844v-55.710938c31.304688-4.777343 44.824219-21.4375 44.824219-41.257812v-105.871094c0-.398437-.011719-.804687-.03125-1.195312zm0 0" fill="#ffddcf"/><path d="m339.589844 0h-108.339844c-5.519531 0-10 4.476562-10 10s4.480469 10 10 10h108.339844c6.871094 0 12.464844 5.59375 12.464844 12.46875v134.511719h-332.054688v-134.511719c0-6.875 5.59375-12.46875 12.46875-12.46875h108.335938c5.519531 0 10-4.476562 10-10s-4.480469-10-10-10h-108.335938c-17.902344 0-32.46875 14.5625-32.46875 32.46875v171.085938c0 17.902343 14.5625 32.46875 32.460938 32.46875h95.792968l.085938 108.085937h-28.03125c-17.378906 0-31.519532 14.144531-31.519532 31.527344 0 17.386719 14.140626 31.53125 31.519532 31.53125h20.183594c16.6875 0 39.855468 23.960937 51.917968 40.640625v54.191406c0 5.523438 4.476563 10 10 10h89.585938c5.523437 0 10-4.476562 10-10v-47.492188c28.246094-6.855468 44.824218-24.917968 44.824218-49.480468v-105.867188c0-.582031-.011718-1.164062-.042968-1.730468-.894532-16.941407-14.664063-30.574219-31.355469-31.042969-8.992187-.273438-17.210937 3.164062-23.234375 8.910156-6.042969-5.761719-13.929688-8.925781-22.296875-8.925781-8.589844 0-16.476563 3.417968-22.308594 9-5.828125-5.582032-13.71875-9-22.304687-9-4.398438 0-8.613282.898437-12.464844 2.523437 0-13.3125-.003906-24.109375-.003906-32.871093h146.78125c17.898437 0 32.460937-14.566407 32.460937-32.46875v-171.085938c.003907-17.90625-14.5625-32.46875-32.460937-32.46875zm-307.128906 216.023438c-6.871094 0-12.460938-5.59375-12.460938-12.46875v-16.574219h110.652344c-1.378906 3.332031-2.21875 6.945312-2.394532 10.738281-.019531.277344-.03125.5625-.03125.851562l.011719 17.453126zm160.558593 81.710937c.464844-6.371094 5.851563-11.363281 12.261719-11.363281 6.402344 0 11.78125 4.992187 12.25 11.363281.382812 5.226563 4.734375 9.269531 9.972656 9.269531h.15625c5.238282 0 9.589844-4.042968 9.972656-9.269531.46875-6.371094 5.851563-11.363281 12.261719-11.363281 3.28125 0 6.375 1.28125 8.695313 3.59375 2.085937 2.09375 3.351562 4.855468 3.5625 7.769531.382812 5.226563 4.734375 9.273437 9.976562 9.273437h.152344c5.242188 0 9.59375-4.046874 9.976562-9.273437.476563-6.550781 6.003907-11.539063 12.605469-11.355469 6.351563.179688 11.597657 5.5 11.941407 12.109375v.023438c.011718.214843.019531.433593.019531.648437v105.867188c0 21.347656-19.761719 28.84375-36.335938 31.375-4.882812.746094-8.492187 4.945312-8.492187 9.886718v45.710938h-69.585938v-47.359375c0-2.015625-.609375-3.984375-1.75-5.644531-3.628906-5.304688-36.441406-51.828125-70.167968-51.828125h-20.183594c-6.351563 0-11.519532-5.171875-11.519532-11.527344 0-6.359375 5.167969-11.53125 11.519532-11.53125h38.042968c2.652344 0 5.195313-1.054687 7.074219-2.933594 1.875-1.875 2.925781-4.421875 2.925781-7.074219l-.125-155.203124c0-.035157.003907-.066407.003907-.101563.238281-6.703125 5.890625-12 12.640625-11.8125 6.289062.179687 11.492187 5.390625 11.917968 11.898437.015626 4.230469.027344 65.199219.03125 97.515626 0 .335937.089844 1.351562.113282 1.539062.476562 5.113281 4.773437 9.066406 9.957031 9.066406h.15625c5.238281 0 9.589844-4.042968 9.972656-9.269531zm159.035157-94.179687c0 6.875-5.589844 12.46875-12.460938 12.46875h-146.792969c-.007812-17.59375-.015625-17.78125-.027343-17.976563-.199219-3.90625-1.09375-7.632813-2.542969-11.066406h161.824219zm0 0"/><path d="m98.949219 64.347656c0-3.191406 3.390625-4.789062 6.78125-4.789062h20.4375c9.972656 0 19.941406 3.59375 19.941406 17.757812 0 8.078125-3.191406 13.363282-8.476563 15.660156 6.082032 2.292969 10.269532 5.984376 10.269532 15.957032v2.097656c0 15.757812-8.773438 21.445312-20.039063 21.445312h-22.132812c-4.191407 0-6.78125-2.195312-6.78125-4.691406zm15.453125 22.640625h10.46875c3.789062 0 5.683594-3.488281 5.683594-6.882812 0-3.488281-1.894532-6.980469-5.683594-6.980469h-10.46875zm9.972656 31.921875c4.984375 0 7.976562-2.792968 7.976562-9.179687v-1.59375c0-6.785157-2.992187-9.175781-7.976562-9.175781h-9.972656v19.945312h9.972656zm0 0"/><path d="m190.371094 64.246094c0-3.289063 3.789062-4.6875 7.777344-4.6875 3.789062 0 7.777343 1.398437 7.777343 4.6875v45.285156c0 17.15625-11.066406 23.542969-25.125 23.542969-14.15625 0-25.125-6.386719-25.125-23.542969v-45.285156c0-3.289063 3.789063-4.6875 7.777344-4.6875 3.789063 0 7.777344 1.398437 7.777344 4.6875v45.285156c0 6.785156 3.589843 9.976562 9.570312 9.976562s9.570313-3.191406 9.570313-9.976562zm0 0"/><path d="m232.640625 102.648438c0-.597657-.199219-1.097657-.398437-1.394532l-20.636719-34.214844c-.199219-.398437-.199219-.796874-.199219-1.097656 0-3.6875 6.28125-6.382812 10.566406-6.382812 2.492188 0 3.390625.996094 4.488282 2.890625l13.957031 25.636719 13.855469-25.636719c1-1.894531 1.996093-2.890625 4.488281-2.890625 4.289062 0 10.566406 2.695312 10.566406 6.382812 0 .300782 0 .699219-.199219 1.097656l-20.535156 34.214844c-.199219.300782-.398438.796875-.398438 1.394532v25.039062c0 3.191406-3.890624 4.785156-7.777343 4.785156-3.890625 0-7.777344-1.59375-7.777344-4.785156zm0 0"/><path d="m185.847656 20c-4.164062 0-7.996094-2.695312-9.40625-6.609375-1.417968-3.9375-.179687-8.46875 3.0625-11.117187 3.25-2.65625 7.878906-2.980469 11.480469-.84375 3.554687 2.109374 5.464844 6.386718 4.679687 10.445312-.898437 4.648438-5.074218 8.125-9.816406 8.125zm0 0"/></svg>