<?xml version="1.0" encoding="UTF-8" standalone="no"?>
<svg
   xmlns:dc="http://purl.org/dc/elements/1.1/"
   xmlns:cc="http://creativecommons.org/ns#"
   xmlns:rdf="http://www.w3.org/1999/02/22-rdf-syntax-ns#"
   xmlns:svg="http://www.w3.org/2000/svg"
   xmlns="http://www.w3.org/2000/svg"
   xmlns:sodipodi="http://sodipodi.sourceforge.net/DTD/sodipodi-0.dtd"
   xmlns:inkscape="http://www.inkscape.org/namespaces/inkscape"
   viewBox="0 -28 512.001 512"
   version="1.1"
   id="svg4"
   sodipodi:docname="heart-outline.svg"
   inkscape:version="0.92.4 (5da689c313, 2019-01-14)">
  <metadata
     id="metadata10">
    <rdf:RDF>
      <cc:Work
         rdf:about="">
        <dc:format>image/svg+xml</dc:format>
        <dc:type
           rdf:resource="http://purl.org/dc/dcmitype/StillImage" />
      </cc:Work>
    </rdf:RDF>
  </metadata>
  <defs
     id="defs8" />
  <sodipodi:namedview
     pagecolor="#ffffff"
     bordercolor="#666666"
     borderopacity="1"
     objecttolerance="10"
     gridtolerance="10"
     guidetolerance="10"
     inkscape:pageopacity="0"
     inkscape:pageshadow="2"
     inkscape:window-width="1920"
     inkscape:window-height="1177"
     id="namedview6"
     showgrid="false"
     inkscape:zoom="0.4609375"
     inkscape:cx="256.00049"
     inkscape:cy="256"
     inkscape:window-x="-8"
     inkscape:window-y="-8"
     inkscape:window-maximized="1"
     inkscape:current-layer="svg4" />
  <path
     d="m 256.00048,427.77062 c -6.39337,0 -12.55718,-2.31614 -17.36078,-6.52357 -18.14196,-15.86352 -35.63294,-30.77111 -51.06475,-43.92103 l -0.0788,-0.0685 C 142.25258,338.70197 103.18312,305.40571 75.999294,272.60627 45.61193,235.9386 31.458113,201.1725 31.458113,163.19258 c 0,-36.90066 12.653121,-70.943823 35.626093,-95.8629 23.24707,-25.213735 55.145404,-39.100305 89.829284,-39.100305 25.92296,0 49.66341,8.195577 70.56008,24.357173 10.54598,8.157889 20.1052,18.141966 28.52691,29.787772 8.42514,-11.645806 17.98094,-21.629883 28.53034,-29.787772 20.89667,-16.161596 44.63712,-24.357173 70.56009,-24.357173 34.68045,0 66.58221,13.88657 89.82928,39.100305 22.97297,24.919077 35.62267,58.96224 35.62267,95.8629 0,37.97992 -14.15039,72.74602 -44.53776,109.41027 -27.18382,32.80286 -66.24987,66.09568 -111.48658,104.6478 -15.45921,13.17048 -32.9776,28.10206 -51.16068,44.00326 -4.80017,4.20058 -10.96741,6.51672 -17.35736,6.51671 z M 156.91349,54.536082 c -27.24892,0 -52.28107,10.874901 -70.49156,30.623775 -18.481163,20.046963 -28.660537,47.758423 -28.660537,78.032723 0,31.94287 11.871939,60.5109 38.490434,92.62852 25.727673,31.0452 63.995393,63.6562 108.303593,101.41684 l 0.0822,0.0685 c 15.49005,13.20132 33.04956,28.16716 51.32514,44.14716 18.38523,-16.01084 35.97215,-31.00066 51.49304,-44.22254 44.30477,-37.76064 82.56907,-70.36479 108.29674,-101.40999 26.61507,-32.11762 38.48701,-60.68565 38.48701,-92.62852 0,-30.2743 -10.17938,-57.98577 -28.66054,-78.032723 -18.20707,-19.748874 -43.24264,-30.623775 -70.48813,-30.623775 -19.96131,0 -38.28829,6.345405 -54.47044,18.858051 -14.42107,11.155853 -24.46682,25.258275 -30.35653,35.125857 -3.0288,5.07427 -8.36004,8.10307 -14.26346,8.10307 -5.90342,0 -11.23465,-3.0288 -14.26345,-8.10307 C 235.85074,98.652408 225.80499,84.549986 211.3805,73.394133 195.19834,60.881487 176.87136,54.536082 156.91349,54.536082 Z m 0,0"
     id="path2"
     style="fill:#364e59;fill-opacity:1;stroke:#364e59;stroke-width:19.577;stroke-opacity:1;stroke-miterlimit:4;stroke-dasharray:none"
     inkscape:connector-curvature="0" />
</svg>
